<svg xmlns="http://www.w3.org/2000/svg" width="30" height="30" viewBox="0 0 30 30">
  <path fill="#FF4D94" d="M288.2904,82.731036 C285.895108,80.3346715 282.713346,79.017312 279.329329,79.017312 C275.945312,79.017312 272.763587,80.3346345 270.368258,82.731036 C267.972929,85.1274375 266.656196,88.3105872 266.656196,91.6961198 C266.656196,94.7219718 267.707798,97.5814126 269.63574,99.8653792 L267.469624,102.032465 L263.829474,98.3906848 C263.425,97.9860302 262.755395,97.999515 262.332962,98.422174 C261.91053,98.844833 261.897014,99.5147007 262.301487,99.9193554 L265.941638,103.561136 L262.661007,106.847718 C262.238574,107.27034 262.238574,107.95373 262.661007,108.371869 C263.08344,108.794491 263.766523,108.794491 264.184476,108.371869 L267.474068,105.080804 L271.114218,108.722585 C271.518691,109.127239 272.188296,109.113755 272.610729,108.691096 C273.033162,108.268437 273.046678,107.598569 272.642204,107.193914 L269.002054,103.552134 L271.16817,101.385048 C273.451114,103.313853 276.309312,104.365926 279.333773,104.365926 C282.71779,104.365926 285.899515,103.048603 288.294844,100.652201 C290.690136,98.255837 292.006905,95.0726502 292.006905,91.6871176 C292.002388,88.3061047 290.685655,85.122955 288.290363,82.731036 L288.2904,82.731036 Z M279.329366,102.216807 C273.532098,102.216807 268.813388,97.4959843 268.813388,91.6961198 C268.813388,85.8962554 273.532098,81.1754329 279.329366,81.1754329 C285.126635,81.1754329 289.845344,85.8962554 289.845344,91.6961198 C289.845344,97.4959843 285.126635,102.216807 279.329366,102.216807 Z" transform="translate(-262 -79)"/>
</svg>
