<?xml version="1.0" encoding="utf-8"?>
<!-- Generator: Adobe Illustrator 21.1.0, SVG Export Plug-In . SVG Version: 6.00 Build 0)  -->
<svg version="1.1" id="图层_1" xmlns="http://www.w3.org/2000/svg" xmlns:xlink="http://www.w3.org/1999/xlink" x="0px" y="0px"
	 viewBox="0 0 44 44" style="enable-background:new 0 0 44 44;" xml:space="preserve">
<style type="text/css">
	.st0{fill:none;stroke:#777777;stroke-width:2;}
</style>
<title>h5/Graphics / Custom Icons /Click / content_praise_44</title>
<desc>Created with Sketch.</desc>
<g id="Graphics-_x2F_-Custom-Icons-_x2F_Click-_x2F_-content_x5F_praise_x5F_44">
	<path id="content_ic_praise_36" class="st0" d="M38.4,16.8c-0.4,0-0.6,0-2.6,0c-3.1,0-3.1,0-8,0c-1,0-1.2-0.9-1-1.5
		c0.9-2.7,1.1-5.5,0.8-8.1c0-0.3-0.1-0.8-0.1-0.8C27.2,3.6,25.8,2,23.7,2c-1.9,0-3.5,1.6-3.7,3.7c-0.5,4.1-2,7.3-4.4,9.7
		c-1.6,1.6-3.3,2.5-4.7,3c-0.3,0.1-0.9,0.1-7.1,0.1c-0.4,0-0.7,0.4-0.7,0.9v21.8C3,41.7,3.3,42,3.7,42h29.7l0.1,0c0,0,0.1,0,0.2,0
		c0.1,0,0.1,0,0.2,0c1.1,0,1.9-0.4,2.6-1.1c0.2-0.3,0.4-0.5,0.6-0.8c0.1-0.2,0.1-0.3,0.2-0.4c0.1-0.2,0.8-3.6,1.7-8.2
		c0-0.2,0-0.2,0.1-0.4c0.4-1.9,0.8-4,1.2-6.1c0.1-0.7,0.3-1.4,0.4-2c0.1-0.4,0.1-0.6,0.2-0.8c0-0.2,0.1-0.4,0.1-0.6
		c0-0.3,0.1-0.5,0.1-0.7C41,18.9,39.9,17.3,38.4,16.8z"/>
</g>
</svg>
