<?xml version="1.0" encoding="UTF-8"?>
<svg width="44px" height="44px" viewBox="0 0 44 44" version="1.1" xmlns="http://www.w3.org/2000/svg" xmlns:xlink="http://www.w3.org/1999/xlink">
    <!-- Generator: Sketch 50.2 (55047) - http://www.bohemiancoding.com/sketch -->
    <title>h5/Graphics / Custom Icons / Click / content_ic_praise_sel_44</title>
    <desc>Created with Sketch.</desc>
    <defs></defs>
    <g id="Graphics-/-Custom-Icons-/-Click-/-content_ic_praise_sel_44" stroke="none" stroke-width="1" fill="none" fill-rule="evenodd">
        <path d="M38.4208838,15.8158335 C38.4063506,15.8102285 38.3541992,15.8046234 38.2674451,15.8046234 L27.7754797,15.8046235 C27.7351427,15.8046235 27.7119094,15.6069155 27.7205107,15.5718962 C29.2425397,10.8370612 28.4932407,6.39804546 28.4642733,6.25221967 C28.4612579,3.34571614 26.3259189,1 23.6927444,1 C21.2506269,1 19.2453945,3.01200311 18.9560656,5.60865076 C17.9896093,14.3954213 11.8408395,17.0173633 10.4577654,17.5025071 C10.3508428,17.4870813 10.2669063,17.5025071 10.1801027,17.5025071 L3.72742136,17.5025071 C2.7725817,17.5025071 2,18.3409096 2,19.388278 L2,20.0346733 L2,41.179509 C2,42.2309973 2.77258175,42.9924628 3.72742136,42.9924628 L10.7673616,42.9924628 L33.461264,42.9924628 C33.6291371,43.0094215 33.7998771,42.9924628 33.9706173,42.9924628 C37.1158638,42.9924628 38.2037759,40.1405721 38.2037759,40.1405721 C38.5481726,39.4170961 41.7888735,22.4155046 41.7888735,22.4155046 C41.8525426,22.1883344 41.8989104,21.9499064 41.9308438,21.711622 C41.9770139,21.3876818 42,21.139433 42,20.8898908 C42,18.4460153 40.477971,16.3989929 38.4208838,15.8158335 Z" id="dynamic_ic_comment" fill="#D60A07" fill-rule="nonzero"></path>
    </g>
</svg>