<?xml version="1.0" encoding="UTF-8"?>
<svg width="28px" height="28px" viewBox="0 0 28 28" version="1.1" xmlns="http://www.w3.org/2000/svg" xmlns:xlink="http://www.w3.org/1999/xlink">
    <!-- Generator: Sketch 50.2 (55047) - http://www.bohemiancoding.com/sketch -->
    <title>h5/Graphics / Custom Icons / Customer / list_ic_talent_28</title>
    <desc>Created with Sketch.</desc>
    <defs>
        <linearGradient x1="20.5323712%" y1="11.4023282%" x2="84.064834%" y2="82.2297653%" id="linearGradient-1">
            <stop stop-color="#F43227" offset="0%"></stop>
            <stop stop-color="#D60A07" offset="100%"></stop>
        </linearGradient>
    </defs>
    <g id="Graphics-/-Custom-Icons-/-Customer-/-list_ic_talent_28" stroke="none" stroke-width="1" fill="none" fill-rule="evenodd">
        <g id="list_ic_v" transform="translate(1.000000, 1.000000)">
            <path d="M-0.382352941,12.9999818 C-0.382352941,5.60912734 5.60912415,-0.382352941 13,-0.382352941 C20.3908519,-0.382352941 26.3823529,5.60913972 26.3823529,12.9999818 C26.3823529,20.3908545 20.3908577,26.3823529 13,26.3823529 C5.60911837,26.3823529 -0.382352941,20.3908669 -0.382352941,12.9999818 Z" id="Page-1" stroke="#FFFFFF" stroke-width="0.764705882" fill="url(#linearGradient-1)"></path>
            <path d="M7.85714704,8.0787236 L6.65294118,8.0787236 C6.5684741,8.0787236 6.5,8.0102495 6.5,7.92578242 L6.5,6.65294118 C6.5,6.5684741 6.5684741,6.5 6.65294118,6.5 L10.131944,6.5 C10.2164111,6.5 10.2848852,6.5684741 10.2848852,6.65294118 L10.2848852,14.6237698 C10.2848852,14.7082368 10.3533593,14.7767109 10.4378264,14.7767109 C10.4815445,14.7767109 10.5231727,14.7580019 10.5521976,14.725309 L17.8090207,6.55140196 C17.8380456,6.518709 17.8796739,6.5 17.923392,6.5 L21.253271,6.5 C21.3377381,6.5 21.4062122,6.5684741 21.4062122,6.65294118 C21.4062122,6.69234388 21.3910048,6.73022631 21.3637599,6.7586919 L8.27351825,20.435439 C8.21511374,20.4964603 8.11829998,20.4985816 8.05727867,20.4401771 C8.02713549,20.4113266 8.01008822,20.3714131 8.01008822,20.3296883 L8.01008822,8.23166478 C8.01008822,8.1471977 7.94161412,8.0787236 7.85714704,8.0787236 Z" id="Shape" fill="#FFFFFF" fill-rule="nonzero"></path>
        </g>
    </g>
</svg>