<?xml version="1.0" encoding="UTF-8"?>
<svg width="28px" height="28px" viewBox="0 0 28 28" version="1.1" xmlns="http://www.w3.org/2000/svg" xmlns:xlink="http://www.w3.org/1999/xlink">
    <!-- Generator: Sketch 50.2 (55047) - http://www.bohemiancoding.com/sketch -->
    <title>h5/Graphics / Custom Icons / Customer / list_ic_lanehuber_28</title>
    <desc>Created with Sketch.</desc>
    <defs>
        <linearGradient x1="20.5323712%" y1="11.4023282%" x2="84.064834%" y2="82.2297653%" id="linearGradient-1">
            <stop stop-color="#ED3F35" offset="0%"></stop>
            <stop stop-color="#E50E02" offset="100%"></stop>
        </linearGradient>
        <linearGradient x1="79.8380376%" y1="86.2178646%" x2="27.8155083%" y2="6.07849367%" id="linearGradient-2">
            <stop stop-color="#0848D1" offset="0%"></stop>
            <stop stop-color="#218AFD" offset="100%"></stop>
        </linearGradient>
    </defs>
    <g id="Graphics-/-Custom-Icons-/-Customer-/-list_ic_lanehuber_28" stroke="none" stroke-width="1" fill="none" fill-rule="evenodd">
        <g id="ic_l-28" transform="translate(1.000000, 1.000000)">
            <path d="M0.464285714,12.9999818 C0.464285714,19.9232817 6.07670446,25.5357143 13,25.5357143 C19.923272,25.5357143 25.5357143,19.923269 25.5357143,12.9999818 C25.5357143,6.0767256 19.9232666,0.464285714 13,0.464285714 C6.07670987,0.464285714 0.464285714,6.07671286 0.464285714,12.9999818 Z" id="Page-1" stroke="#FFFFFF" stroke-width="0.928571429" fill="url(#linearGradient-1)"></path>
            <path d="M-0.382352941,12.9999818 C-0.382352941,5.60912734 5.60912415,-0.382352941 13,-0.382352941 C20.3908519,-0.382352941 26.3823529,5.60913972 26.3823529,12.9999818 C26.3823529,20.3908545 20.3908577,26.3823529 13,26.3823529 C5.60911837,26.3823529 -0.382352941,20.3908669 -0.382352941,12.9999818 Z" id="Page-1" stroke="#FFFFFF" stroke-width="0.764705882" fill="url(#linearGradient-2)"></path>
            <g id="Group-4" transform="translate(6.500000, 5.571429)" fill="#FFFFFF">
                <path d="M10.075866,0.270351331 L4.40985399,11.3367915 C4.36311024,11.428088 4.39922736,11.5399917 4.49052383,11.5867355 C4.51672062,11.6001482 4.54573005,11.6071429 4.57516087,11.6071429 L10.9571429,11.6071429 C11.05971,11.6071429 11.1428571,11.69029 11.1428571,11.7928571 L11.1428571,13.7428571 C11.1428571,13.8454243 11.05971,13.9285714 10.9571429,13.9285714 L0.30228687,13.9285714 C0.199719702,13.9285714 0.116572584,13.8454243 0.116572584,13.7428571 C0.116572584,13.7136921 0.123441528,13.684937 0.13662311,13.6589208 L7.00558101,0.101777913 C7.03721298,0.039346441 7.10125712,-2.64699234e-16 7.17124477,-2.77555756e-16 L9.91055908,-2.58126853e-15 C10.0131262,-3.60218721e-15 10.0962734,0.0831471179 10.0962734,0.185714286 C10.0962734,0.215145108 10.0892787,0.244154544 10.075866,0.270351331 Z" id="L"></path>
                <path d="M9.84285148,10.6785714 L10.9571429,10.6785714 C11.05971,10.6785714 11.1428571,10.7617185 11.1428571,10.8642857 L11.1428571,13.7428571 C11.1428571,13.8454243 11.05971,13.9285714 10.9571429,13.9285714 L9.84285148,13.9285714 C9.74028431,13.9285714 9.65713719,13.8454243 9.65713719,13.7428571 L9.65713719,10.8642857 C9.65713719,10.7617185 9.74028431,10.6785714 9.84285148,10.6785714 Z" id="Rectangle-5"></path>
            </g>
        </g>
    </g>
</svg>