<?xml version="1.0" encoding="UTF-8"?>
<svg width="30px" height="30px" viewBox="0 0 30 30" version="1.1" xmlns="http://www.w3.org/2000/svg" xmlns:xlink="http://www.w3.org/1999/xlink">
    <!-- Generator: Sketch 50.2 (55047) - http://www.bohemiancoding.com/sketch -->
    <title>h5/Graphics / Custom Icons / Customer / list_ic_lanehuber_30</title>
    <desc>Created with Sketch.</desc>
    <defs>
        <linearGradient x1="20.5323712%" y1="11.4023282%" x2="84.064834%" y2="82.2297653%" id="linearGradient-1">
            <stop stop-color="#ED3F35" offset="0%"></stop>
            <stop stop-color="#E50E02" offset="100%"></stop>
        </linearGradient>
        <linearGradient x1="79.8380376%" y1="86.2178646%" x2="27.8155083%" y2="6.07849367%" id="linearGradient-2">
            <stop stop-color="#0848D1" offset="0%"></stop>
            <stop stop-color="#218AFD" offset="100%"></stop>
        </linearGradient>
    </defs>
    <g id="Graphics-/-Custom-Icons-/-Customer-/-list_ic_lanehuber_30" stroke="none" stroke-width="1" fill="none" fill-rule="evenodd">
        <g id="ic_l-28" transform="translate(1.000000, 1.000000)">
            <path d="M0.5,13.9999804 C0.5,21.4558419 6.54414326,27.5 14,27.5 C21.4558314,27.5 27.5,21.4558281 27.5,13.9999804 C27.5,6.54416603 21.4558255,0.5 14,0.5 C6.54414909,0.5 0.5,6.54415231 0.5,13.9999804 Z" id="Page-1" stroke="#FFFFFF" fill="url(#linearGradient-1)"></path>
            <path d="M-0.411764706,13.9999804 C-0.411764706,6.04059868 6.04059524,-0.411764706 14,-0.411764706 C21.959379,-0.411764706 28.4117647,6.040612 28.4117647,13.9999804 C28.4117647,21.9593818 21.9593852,28.4117647 14,28.4117647 C6.04058902,28.4117647 -0.411764706,21.9593951 -0.411764706,13.9999804 Z" id="Page-1" stroke="#FFFFFF" stroke-width="0.823529412" fill="url(#linearGradient-2)"></path>
            <g id="Group-4" transform="translate(7.000000, 6.000000)" fill="#FFFFFF">
                <path d="M10.8509326,0.291147587 L4.74907353,12.2088524 C4.6987341,12.3071717 4.73762946,12.4276834 4.83594874,12.4780228 C4.86416066,12.4924673 4.89540159,12.5 4.92709633,12.5 L11.8,12.5 C11.9104569,12.5 12,12.5895431 12,12.7 L12,14.8 C12,14.910457 11.910457,15 11.8,15 L0.325539706,15 C0.215082756,15 0.125539706,14.9104569 0.125539706,14.8 C0.125539706,14.7685915 0.13293703,14.7376245 0.14713258,14.709607 L7.54447185,0.109606984 C7.57853705,0.0423730903 7.64750767,7.11032764e-16 7.72287898,2.77555756e-17 L10.6729098,-2.49800181e-15 C10.7833667,-2.51829242e-15 10.8729098,0.08954305 10.8729098,0.2 C10.8729098,0.231694732 10.8653771,0.262935662 10.8509326,0.291147587 Z" id="L"></path>
                <path d="M10.5999939,11.5 L11.8,11.5 C11.9104569,11.5 12,11.5895431 12,11.7 L12,14.8 C12,14.9104569 11.9104569,15 11.8,15 L10.5999939,15 C10.4895369,15 10.3999939,14.9104569 10.3999939,14.8 L10.3999939,11.7 C10.3999939,11.5895431 10.4895369,11.5 10.5999939,11.5 Z" id="Rectangle-5"></path>
            </g>
        </g>
    </g>
</svg>