<?xml version="1.0" encoding="UTF-8"?>
<svg width="32px" height="32px" viewBox="0 0 32 32" version="1.1" xmlns="http://www.w3.org/2000/svg" xmlns:xlink="http://www.w3.org/1999/xlink">
    <!-- Generator: Sketch 51.2 (57519) - http://www.bohemiancoding.com/sketch -->
    <title>h5/Graphics / Custom Label / push_lb_product</title>
    <desc>Created with Sketch.</desc>
    <defs></defs>
    <g id="Graphics-/-Custom-Label-/-push_lb_product" stroke="none" stroke-width="1" fill="none" fill-rule="evenodd">
        <g id="Group" transform="translate(3.000000, 2.000000)" fill="#1970CE" fill-rule="nonzero">
            <g id="购物袋">
                <path d="M22.7147563,8.07008964 L19.7366947,8.07008964 L19.7366947,7.8422559 C19.7366947,4.62118337 16.1630701,0.000365095355 13,0.000365129584 C9.83692995,0.000365163814 6.26330531,4.62118337 6.26330531,7.8422559 L6.26330531,8.07008964 L3.30747338,8.07008964 C2.18451539,8.07008964 1.24154622,8.97923389 1.1612325,10.1198631 L0.0418599328,24.0886715 C-0.0278301552,25.0960797 0.317163212,26.0876054 0.994151261,26.8255974 C1.67467929,27.562964 2.62500128,27.9799419 3.61868908,27.9771801 L22.4042577,27.9771801 C23.3973675,27.9817417 24.3477059,27.5659651 25.0280784,26.8292486 C25.7051416,26.0865953 26.0498946,25.0915308 25.9803697,24.080639 L24.8609972,10.1198631 C24.7799664,8.97923389 23.8377143,8.07008964 22.7147563,8.07008964 Z M7.69747899,7.8422559 C7.69747899,5.42590382 8.52018166,1.4608378 13,1.4608378 C17.4798183,1.4608378 18.302521,5.42590382 18.302521,7.8422559 L18.302521,8.07008964 L7.69747899,8.07008964 L7.69747899,7.8422559 Z M21.9919972,26.0003651 L4.07357468,26.0003651 C3.50097933,26.0003651 2.97054659,25.779519 2.58020251,25.3530574 C2.19232077,24.9354534 1.99573052,24.3704963 2.03888911,23.797442 L3.10043462,10.6545959 C3.12491613,10.2939036 3.42277451,10.0003651 3.77843645,10.0003651 L7.58156946,10.0003651 L8.94165342,10.0003651 L17.1021571,10.0003651 L18.462241,10.0003651 L22.2864553,10.0003651 C22.6414372,10.0003651 22.9392956,10.2973651 22.9651372,10.6580574 L24.0273628,23.7898266 C24.0697426,24.365312 23.8728528,24.9324749 23.4846893,25.3530574 C23.0950252,25.779519 22.5645925,26.0003651 21.9919972,26.0003651 Z" id="Shape"></path>
            </g>
            <g id="Group-2" transform="translate(6.000000, 0.000000)">
                <path d="M12,12.2078363 L12,8.91650576 C12,5.30514801 11.0333333,2 7.01666667,2 C3,2 2,5.45099207 2,8.91650576 C2,11.2268482 2,12.3239584 2,12.2078363 C2,12.6240126 1.66888501,12.9014634 0.98882441,12.9014634 C0.308763815,12.9014634 -1.45519152e-11,12.6240126 -1.45519152e-11,12.2078363 L-1.45519152e-11,8.91650576 C-1.21388373e-11,2.2521691 2.88324994,-1.13686838e-13 7.01666667,-1.13686838e-13 C11.1500834,-1.13686838e-13 14,2.2521691 14,8.91650576 L14,12.2078363 C14,12.5546499 13.6649652,12.9014634 13.0557011,12.9014634 C12.4190271,12.9014634 12,12.6240126 12,12.2078363 Z" id="Shape"></path>
            </g>
        </g>
    </g>
</svg>