<?xml version="1.0" encoding="UTF-8"?>
<svg width="12px" height="24px" viewBox="0 0 12 24" version="1.1" xmlns="http://www.w3.org/2000/svg" xmlns:xlink="http://www.w3.org/1999/xlink">
    <title>ic_next</title>
    <desc>Created with Sketch.</desc>
    <defs></defs>
    <g id="我的-未登录" stroke="none" stroke-width="1" fill="none" fill-rule="evenodd" transform="translate(-708.000000, -348.000000)">
        <g id="我的消息" transform="translate(0.000000, 300.000000)" fill="#777777" fill-rule="nonzero">
        <path d="M718.893196,48.0000408 C719.180198,48.0000408 719.466908,48.124538 719.683622,48.3723096 C720.111454,48.8620641 720.104476,49.6479786 719.66785,50.1277864 L710.687901,60.0000449 L719.667886,69.8720589 C720.104512,70.3519482 720.11149,71.137822 719.683659,71.6275357 C719.255791,72.1172086 718.555169,72.1250356 718.118688,71.6452278 L708.332103,60.8865682 C708.127092,60.6610953 708,60.3472024 708,60.0000042 C708,59.652806 708.127092,59.3389131 708.331922,59.1136032 L718.118688,48.3549028 C718.334093,48.1179748 718.613681,48 718.893196,48 L718.893196,48.0000408 Z" id="ic_next" transform="translate(714.000000, 60.000000) scale(-1, -1) translate(-714.000000, -60.000000) "></path>
        </g>
    </g>
</svg>