<?xml version="1.0" encoding="UTF-8"?>
<svg width="52px" height="52px" viewBox="0 0 52 52" version="1.1" xmlns="http://www.w3.org/2000/svg" xmlns:xlink="http://www.w3.org/1999/xlink">
    <!-- Generator: Sketch 50.2 (55047) - http://www.bohemiancoding.com/sketch -->
    <title>h5/Graphics / Tool Bar Icons / Light / toolbar _ic_keyboard_emoji</title>
    <desc>Created with Sketch.</desc>
    <defs></defs>
    <g id="Graphics-/-Tool-Bar-Icons-/-Light-/-toolbar-_ic_keyboard_emoji" stroke="none" stroke-width="1" fill="none" fill-rule="evenodd">
        <g transform="translate(0.928571, 0.928571)" fill="#777777" fill-rule="nonzero" id="content_ic_emoji_32">
            <g>
                <path d="M17.1785967,19.6857143 C18.4654616,19.6857143 19.5,18.6466379 19.5,17.368409 C19.5,16.0819335 18.4570507,15.0428571 17.1785967,15.0428571 C15.8917318,15.0428571 14.8571934,16.0819335 14.8571934,17.368409 C14.8487825,18.6466379 15.8917318,19.6857143 17.1785967,19.6857143 Z M32.9642857,19.6857143 C34.2511646,19.6857143 35.2857143,18.6466379 35.2857143,17.368409 C35.2857143,16.0819335 34.2427536,15.0428571 32.9642857,15.0428571 C31.6858178,15.0428571 30.6428571,16.0819335 30.6428571,17.368409 C30.6428571,18.6466379 31.6858178,19.6857143 32.9642857,19.6857143 Z M25.0714253,0 C11.2283676,0 0,11.222919 0,25.0714286 C0,38.9199381 11.2283676,50.1428571 25.0714253,50.1428571 C38.9144831,50.1428571 50.1428506,38.9199381 50.1428506,25.0714286 C50.1527174,11.222919 38.9243498,0 25.0714253,0 Z M25.0714286,48.2857143 C12.2530227,48.2857143 1.85714286,37.8898345 1.85714286,25.0714286 C1.85714286,12.2530227 12.2530227,1.85714286 25.0714286,1.85714286 C37.8898345,1.85714286 48.2857143,12.2530227 48.2857143,25.0714286 C48.2857143,37.8898345 37.899372,48.2857143 25.0714286,48.2857143 Z M36.2142857,26.6902137 C36.2142857,32.8297525 31.7854502,38.0714286 25.0714286,38.0714286 C18.3574069,38.0714286 13.9285714,32.8297525 13.9285714,26.6902137 C13.9285714,26.078234 13.5916226,25.5748313 13,25.5748313 C12.398517,25.5748313 12.0714286,26.0683633 12.0714286,26.6902137 C12.0714286,34.053712 17.8578226,39.9285714 25.0756186,39.9285714 C32.2934147,39.9285714 38.0714286,34.053712 38.0714286,26.6902137 C38.0714286,26.0683633 37.7443401,25.5748313 37.1428571,25.5748313 C36.5413741,25.5748313 36.2142857,26.0683633 36.2142857,26.6902137 Z" id="Shape"></path>
            </g>
        </g>
    </g>
</svg>