<?xml version="1.0" encoding="UTF-8"?>
<svg width="28px" height="28px" viewBox="0 0 28 28" version="1.1" xmlns="http://www.w3.org/2000/svg" xmlns:xlink="http://www.w3.org/1999/xlink">
    <!-- Generator: Sketch 50.2 (55047) - http://www.bohemiancoding.com/sketch -->
    <title>h5/Graphics / Custom Icons / Customer / custom_ic_add</title>
    <desc>Created with Sketch.</desc>
    <defs></defs>
    <g id="Graphics-/-Custom-Icons-/-Customer-/-custom_ic_add" stroke="none" stroke-width="1" fill="none" fill-rule="evenodd">
        <path d="M15.0018005,13 L15.0018005,4.00570679 C15.0018005,3.39842945 14.6072773,3 14,3 C13.3927227,3 13,3.39842945 13,4.00570679 L13,13 L3.99992371,13 C3.39264637,13 3,13.3927227 3,14 C3,14.6072773 3.39264637,15.0014801 3.99992371,15.0014801 L13,15.0014801 L13,24.0027008 C13,24.6111813 13.3927227,25 14,25 C14.6072773,25 15.0018005,24.6111813 15.0018005,24.0027008 L15.0018005,15.0014801 L24.0099541,15.0014801 C24.6184345,15.0014801 25,14.6072773 25,14 C25,13.3927227 24.6184345,13 24.0099541,13 L15.0018005,13 Z" id="list_ic_follow_red" fill="#0848D1" fill-rule="nonzero"></path>
    </g>
</svg>