<?xml version="1.0" encoding="UTF-8"?>
<svg width="42px" height="42px" viewBox="0 0 42 42" version="1.1" xmlns="http://www.w3.org/2000/svg" xmlns:xlink="http://www.w3.org/1999/xlink">
    <!-- Generator: Sketch 50.2 (55047) - http://www.bohemiancoding.com/sketch -->
    <title>h5/Graphics / Custom Icons / Login / Light / login_ic_hide</title>
    <desc>Created with Sketch.</desc>
    <defs></defs>
    <g id="Graphics-/-Custom-Icons-/-Login-/-Light-/-login_ic_hide" stroke="none" stroke-width="1" fill="none" fill-rule="evenodd">
        <g id="login_ic_display" transform="translate(2.000000, 9.000000)" fill="#363636">
            <g id="Group-3" transform="translate(0.000000, 0.037361)">
                <path d="M1.78762717,11.7830528 C2.60224295,13.5932882 7.03708383,21.7388561 18.9841265,21.7388561 C30.9311201,21.7388561 35.3660101,13.5932882 36.1805767,11.7830528 C35.3660101,9.97296481 30.9311201,1.82734774 18.9841265,1.82734774 C7.12753661,1.82734774 2.60224295,9.97296481 1.78762717,11.7830528 M18.9841265,23.5491408 C11.4719739,23.5491408 6.76557801,20.4719273 4.14072678,17.8472235 C1.24456636,15.0415651 0.15849392,12.2356608 0.0678445019,12.0547552 C-0.0226082794,11.8737022 -0.0226082794,11.6021472 0.0678445019,11.3306414 C0.15849392,11.2401886 1.24456636,8.43448098 4.14072678,5.53812393 C6.76557801,3.0943749 11.4719739,0.0171122898 18.9841265,0.0171122898 C26.49623,0.0171122898 31.202675,3.0943749 33.8272805,5.71917697 C36.7236375,8.52488461 37.8097591,11.3306414 37.9001627,11.5116944 C37.9906647,11.6926 37.9906647,11.9641058 37.9001627,12.2356608 C37.8097591,12.3261136 36.7236375,15.1318212 33.8272805,18.0281783 C31.202675,20.4719273 26.49623,23.5491408 18.9841265,23.5491408" id="Fill-1"></path>
            </g>
            <path d="M18.9841265,6.29939715 C15.9068639,6.29939715 13.4631149,8.74314618 13.4631149,11.8204088 C13.4631149,14.8978189 15.9068639,17.3415679 18.9841265,17.3415679 C22.06134,17.3415679 24.505089,14.8978189 24.505089,11.8204088 C24.505089,8.74314618 22.06134,6.29939715 18.9841265,6.29939715 M18.9841265,19.0612031 C15.0018445,19.0612031 11.7433322,15.8028383 11.7433322,11.8204088 C11.7433322,7.83812678 15.0016479,4.57981113 18.9841265,4.57981113 C22.9664085,4.57981113 26.2247242,7.83812678 26.2247242,11.8204088 C26.2247242,15.8028383 22.9664085,19.0612031 18.9841265,19.0612031" id="Fill-4"></path>
        </g>
    </g>
</svg>