<?xml version="1.0" encoding="UTF-8"?>
<svg width="220px" height="228px" viewBox="0 0 220 228" version="1.1" xmlns="http://www.w3.org/2000/svg" xmlns:xlink="http://www.w3.org/1999/xlink">
    <!-- Generator: Sketch 50.2 (55047) - http://www.bohemiancoding.com/sketch -->
    <title>Artboard 2</title>
    <desc>Created with Sketch.</desc>
    <defs>
        <polygon id="path-1" points="0 187.809 18.7948 187.809 18.7948 223.944 0 223.944"></polygon>
        <polygon id="path-3" points="27.2895 0 189.9775 0 189.9775 84.4594 27.2895 84.4594"></polygon>
    </defs>
    <g id="Artboard-2" stroke="none" stroke-width="1" fill="none" fill-rule="evenodd">
        <g id="Group" transform="translate(1.000000, 2.000000)">
            <path d="M205.8753,219.27 L197.1033,219.27 L197.1033,207.445 L205.8753,207.445 C209.4183,207.445 212.3023,210.098 212.3023,213.358 C212.3023,216.618 209.4183,219.27 205.8753,219.27 Z M197.1033,192.482 L205.2553,192.482 C208.5733,192.482 211.2723,194.962 211.2723,198.012 C211.2723,201.06 208.5733,203.54 205.2553,203.54 L197.1033,203.54 L197.1033,192.482 Z M213.0583,205.677 L212.8023,205.491 L213.0333,205.273 C215.0803,203.338 216.2083,200.759 216.2083,198.012 C216.2083,192.386 211.4373,187.809 205.5723,187.809 L192.0613,187.809 L192.0613,223.944 L206.4203,223.944 C212.4013,223.944 217.2673,219.367 217.2673,213.742 C217.2673,210.567 215.7333,207.627 213.0583,205.677 Z" id="Fill-1" fill="#FFFFFF"></path>
            <polygon id="Fill-4" fill="#FFFFFF" points="152.3719 223.9438 152.3719 187.8088 147.3659 187.8088 147.3659 203.5398 129.2259 203.5398 129.2259 187.8088 124.2199 187.8088 124.2199 223.9438 129.2259 223.9438 129.2259 207.4448 147.3659 207.4448 147.3659 223.9438"></polygon>
            <path d="M38.2025,196.9614 L43.7505,210.3664 L32.3895,210.3664 L38.2025,196.9614 Z M45.0955,214.2744 L49.3165,223.9434 L54.4895,223.9434 L39.0945,187.8094 L37.4425,187.8094 L21.4825,223.9434 L26.5635,223.9434 L30.9775,214.2744 L45.0955,214.2744 Z" id="Fill-6" fill="#FFFFFF"></path>
            <polygon id="Fill-8" fill="#FFFFFF" points="117.1834 192.4819 117.1834 187.8089 92.6644 187.8089 92.6644 223.9439 117.1834 223.9439 117.1834 219.2699 97.6714 219.2699 97.6714 207.0409 116.7564 207.0409 116.7564 203.1289 97.6714 203.1289 97.6714 192.4819"></polygon>
            <polygon id="Fill-10" fill="#FFFFFF" points="85.5359 223.9438 85.5359 187.8088 80.5309 187.8088 80.5309 214.0138 59.5139 187.8088 57.3859 187.8088 57.3859 223.9438 62.3899 223.9438 62.3899 197.6808 83.5359 223.9438"></polygon>
            <path d="M172.2571,224.4648 C176.2881,224.4648 179.7341,223.0468 182.4991,220.2498 C184.9531,217.7458 186.1981,214.5098 186.1981,210.6318 L186.1981,187.8738 L181.0451,187.8738 L181.0451,209.0458 C181.0451,212.4088 180.4791,214.8738 179.3631,216.3728 C177.6891,218.6238 175.2991,219.7658 172.2571,219.7658 C169.2301,219.7658 166.8471,218.6238 165.1751,216.3718 C164.0601,214.8208 163.4951,212.3568 163.4951,209.0458 L163.4951,187.8738 L158.3401,187.8738 L158.3401,210.6318 C158.3401,214.5078 159.5851,217.7448 162.0401,220.2508 C164.7901,223.0478 168.2271,224.4648 172.2571,224.4648" id="Fill-12" fill="#FFFFFF"></path>
            <mask id="mask-2" fill="white">
                <use xlink:href="#path-1"></use>
            </mask>
            <g id="Clip-15"></g>
            <polygon id="Fill-14" fill="#FFFFFF" mask="url(#mask-2)" points="-0.0002 187.809 -0.0002 223.944 18.7948 223.944 18.7948 219.27 5.0048 219.27 5.0048 187.809"></polygon>
            <mask id="mask-4" fill="white">
                <use xlink:href="#path-3"></use>
            </mask>
            <g id="Clip-18"></g>
            <path d="M59.6605,69.0634 C72.2385,59.1624 92.5325,41.0174 92.5325,41.0174 C92.5325,41.0174 99.1235,34.7144 108.6655,34.7144 C118.2485,34.7144 124.7985,41.0174 124.7985,41.0174 C124.7985,41.0174 145.7565,59.9934 157.5445,69.0634 C166.0385,75.5994 178.9585,80.8394 189.9095,84.4594 C189.9385,83.5584 189.9775,82.4454 189.9775,81.5374 C189.9775,36.5054 153.8585,-0.0006 108.8275,-0.0006 C63.7945,-0.0006 27.2895,36.5054 27.2895,81.5374 C27.2895,82.5174 27.3285,83.4874 27.3635,84.4594 C37.6505,81.0974 51.0635,75.8304 59.6605,69.0634" id="Fill-17" fill="#FFFFFF" mask="url(#mask-4)"></path>
            <path d="M155.2757,92.1113 C150.9237,87.7233 143.3817,79.3913 135.2447,70.5633 C121.1217,55.2413 96.0877,55.1323 82.0857,70.5633 C74.1417,79.3183 66.3717,87.7573 62.0537,92.1113 C54.5787,99.6513 42.4337,106.6203 32.7717,111.2083 C44.5687,141.7113 74.1607,163.0743 108.8267,163.0743 C143.3857,163.0743 172.9017,141.5633 184.7717,111.2083 C175.0157,106.6143 162.9037,99.8043 155.2757,92.1113" id="Fill-20" fill="#FFFFFF"></path>
        </g>
    </g>
</svg>