<?xml version="1.0" encoding="UTF-8"?>
<svg width="162px" height="30px" viewBox="0 0 162 30" version="1.1" xmlns="http://www.w3.org/2000/svg" xmlns:xlink="http://www.w3.org/1999/xlink">
    <!-- Generator: Sketch 50.2 (55047) - http://www.bohemiancoding.com/sketch -->
    <title>Artboard</title>
    <desc>Created with Sketch.</desc>
    <defs>
        <polygon id="path-1" points="0 0.0393187542 15.0520854 0.0393187542 15.0520854 25.7941127 0 25.7941127"></polygon>
        <polygon id="path-3" points="0.115303095 0.0395034709 21.314964 0.0395034709 21.314964 26.3920405 0.115303095 26.3920405"></polygon>
    </defs>
    <g id="Artboard" stroke="none" stroke-width="1" fill="none" fill-rule="evenodd">
        <g id="nav_ic_logo" transform="translate(1.000000, 1.000000)">
            <g>
                <g id="Group-3">
                    <mask id="mask-2" fill="white">
                        <use xlink:href="#path-1"></use>
                    </mask>
                    <g id="Clip-2"></g>
                    <path d="M14.4051359,22.9367703 L13.306407,22.9367703 L12.0837977,22.9367703 L9.11534301,22.9367703 L6.14722223,22.9367703 L3.82571702,22.9367703 C3.46993654,22.9367703 3.17893449,22.6432262 3.17893449,22.2847119 L3.17893449,17.2123233 L3.17893449,11.4878762 L3.17893449,5.7637658 L3.17893449,1.66138568 L3.17893449,0.691377204 C3.17893449,0.332694562 2.88793244,0.0393187542 2.53215195,0.0393187542 L0.646899403,0.0393187542 C0.291118923,0.0393187542 -5.00864121e-05,0.332694562 -5.00864121e-05,0.691377204 L-5.00864121e-05,1.66138568 L-5.00864121e-05,6.47793307 L-5.00864121e-05,12.9167157 L-5.00864121e-05,19.35533 L-5.00864121e-05,25.1420542 C-5.00864121e-05,25.5005685 0.291118923,25.7941127 0.646899403,25.7941127 L3.76294205,25.7941127 L7.5259342,25.7941127 L11.2889263,25.7941127 L13.306407,25.7941127 L14.4051359,25.7941127 C14.7609164,25.7941127 15.0520854,25.5005685 15.0520854,25.1420542 L15.0520854,23.5888288 C15.0520854,23.2301461 14.7609164,22.9367703 14.4051359,22.9367703" id="Fill-1" fill="#FFFFFF" mask="url(#mask-2)"></path>
                </g>
                <path d="M33.8667298,17.2934901 L31.7548593,17.2934901 L28.98085,17.2934901 L26.2066697,17.2934901 L24.0947992,17.2934901 C23.7305716,17.2934901 23.5411937,17.018552 23.6741684,16.68246 L28.7196863,3.91435335 C28.8524901,3.57826139 29.0704113,3.57809199 29.2040697,3.91401455 L34.2859932,16.6829682 C34.4194807,17.0187214 34.2309574,17.2934901 33.8667298,17.2934901 Z M38.8811405,19.4404808 L36.2541212,12.960377 L33.6271019,6.48010381 L31.2468891,0.608997287 C31.1111797,0.273921728 30.7020005,0 30.3379439,0 L29.9904663,0 L28.98085,0 L27.9710627,0 L27.6237561,0 C27.2595285,0 26.8500074,0.273752327 26.7137853,0.608658484 L24.084715,7.06978936 L21.6877521,12.960377 L19.0509905,19.4404808 L19.0508195,19.4406502 L16.661719,25.3120956 C16.5256678,25.6470017 16.71214,25.9207541 17.0763676,25.9207541 L17.3453935,25.9207541 L18.2765582,25.9207541 L19.2077228,25.9207541 L19.4769197,25.9207541 C19.8409764,25.9207541 20.2487882,25.6461547 20.3827884,25.3104016 L20.7172762,24.4730515 L20.7948732,24.2792565 L22.2087121,20.7404656 C22.3427123,20.4047124 22.7503532,20.1301131 23.1145808,20.1301131 L25.7067327,20.1301131 L28.9611943,20.1301131 L32.215485,20.1301131 L34.8078078,20.1301131 C35.1720354,20.1301131 35.5796763,20.4047124 35.7136765,20.7404656 L37.1275154,24.2792565 L37.2049415,24.4730515 L37.5396002,25.3104016 C37.6736004,25.6461547 38.0812413,25.9207541 38.4454689,25.9207541 L38.7144948,25.9207541 L39.6458304,25.9207541 L40.5769951,25.9207541 L40.846021,25.9207541 C41.2102486,25.9207541 41.3970627,25.6468323 41.2613533,25.3117568 L38.8811405,19.4404808 Z" id="Fill-4" fill="#FFFFFF"></path>
                <path d="M63.4411767,0 L61.5360231,0 C61.1764869,0 60.882413,0.295266278 60.882413,0.656260219 L60.882413,19.5905703 C60.882413,19.9515642 60.7079595,20.0091606 60.4945323,19.7186376 L46.4076659,0.528192918 C46.1944075,0.237669873 45.7257113,0 45.3661752,0 L43.3835804,0 C43.0240443,0 42.7299703,0.295266278 42.7299703,0.656260219 L42.7299703,25.2644938 C42.7299703,25.6254878 43.0240443,25.9207541 43.3835804,25.9207541 L45.288734,25.9207541 C45.6482702,25.9207541 45.9425128,25.6254878 45.9425128,25.2644938 L45.9425128,5.90278455 C45.9425128,5.54179061 46.115954,5.48487181 46.3282001,5.77624186 L60.6126343,25.3910365 C60.8248804,25.6822372 61.292733,25.9207541 61.6521004,25.9207541 L63.4411767,25.9207541 C63.8007128,25.9207541 64.0949555,25.6254878 64.0949555,25.2644938 L64.0949555,0.656260219 C64.0949555,0.295266278 63.8007128,0 63.4411767,0" id="Fill-6" fill="#FFFFFF"></path>
                <path d="M84.7992778,0 L69.0284449,0 C68.6651229,0 68.3679525,0.295266278 68.3679525,0.656260219 L68.3679525,25.2644938 C68.3679525,25.6254878 68.6651229,25.9207541 69.0284449,25.9207541 L84.7992778,25.9207541 C85.1625997,25.9207541 85.4599407,25.6254878 85.4599407,25.2644938 L85.4599407,23.7012596 C85.4599407,23.3402657 85.1625997,23.0449994 84.7992778,23.0449994 L72.2748144,23.0449994 C71.9114925,23.0449994 71.6141516,22.7495637 71.6141516,22.3887392 L71.6141516,14.7631445 C71.6141516,14.40232 71.9114925,14.1067149 72.2748144,14.1067149 L84.5256355,14.1067149 C84.8887869,14.1067149 85.1861279,13.8114486 85.1861279,13.4504547 L85.1861279,11.8873899 C85.1861279,11.5263959 84.8887869,11.2311297 84.5256355,11.2311297 L72.2748144,11.2311297 C71.9114925,11.2311297 71.6141516,10.9358634 71.6141516,10.5748694 L71.6141516,3.53218426 C71.6141516,3.17119032 71.9114925,2.87575464 72.2748144,2.87575464 L84.7992778,2.87575464 C85.1625997,2.87575464 85.4599407,2.58031896 85.4599407,2.21949442 L85.4599407,0.656260219 C85.4599407,0.295266278 85.1625997,0 84.7992778,0" id="Fill-8" fill="#FFFFFF"></path>
                <path d="M110.449012,0 L108.557555,0 C108.200604,0 107.908477,0.295266278 107.908477,0.656260219 L107.908477,10.4971143 C107.908477,10.8581082 107.616517,11.1533745 107.259566,11.1533745 L93.571295,11.1533745 C93.2143437,11.1533745 92.9222165,10.8581082 92.9222165,10.4971143 L92.9222165,0.656260219 C92.9222165,0.295266278 92.6302567,0 92.2733054,0 L90.3818487,0 C90.0248974,0 89.7329377,0.295266278 89.7329377,0.656260219 L89.7329377,25.2644938 C89.7329377,25.6254878 90.0248974,25.9207541 90.3818487,25.9207541 L92.2733054,25.9207541 C92.6302567,25.9207541 92.9222165,25.6254878 92.9222165,25.2644938 L92.9222165,14.6853894 C92.9222165,14.3245648 93.2143437,14.0289598 93.571295,14.0289598 L107.259566,14.0289598 C107.616517,14.0289598 107.908477,14.3245648 107.908477,14.6853894 L107.908477,25.2644938 C107.908477,25.6254878 108.200604,25.9207541 108.557555,25.9207541 L110.449012,25.9207541 C110.805963,25.9207541 111.097923,25.6254878 111.097923,25.2644938 L111.097923,0.656260219 C111.097923,0.295266278 110.805963,0 110.449012,0" id="Fill-10" fill="#FFFFFF"></path>
                <g id="Group-14" transform="translate(115.370920, 0.000000)">
                    <mask id="mask-4" fill="white">
                        <use xlink:href="#path-3"></use>
                    </mask>
                    <g id="Clip-13"></g>
                    <path d="M20.6580755,0.0395034709 L18.7045358,0.0395034709 C18.3431963,0.0395034709 18.0474777,0.334383769 18.0474777,0.69490581 L18.0474777,1.32053251 L18.0474777,3.97868469 L18.0474777,7.9180351 L18.0474777,11.8573855 L18.0474777,15.1413336 L18.0474777,15.7965667 C18.0474777,16.9803174 17.8869012,18.054778 17.5715134,19.0010003 C17.2561255,19.9468843 16.7857567,20.7643608 16.165833,21.4338051 C15.5459093,22.1034185 14.7762611,22.6249997 13.8628232,22.9790929 C12.9493853,23.3333553 11.8918186,23.5201297 10.695549,23.5201297 C9.49944892,23.5201297 8.4444256,23.3333553 7.53454854,22.9790929 C6.62450191,22.6249997 5.86011022,22.1034185 5.24493429,21.4338051 C4.62992794,20.7643608 4.16430691,19.9468843 3.85247986,19.0010003 C3.54082238,18.054778 3.38261975,16.9803174 3.38261975,15.7965667 L3.38261975,15.1413336 L3.38261975,11.8573855 L3.38261975,7.9180351 L3.38261975,3.97868469 L3.38261975,2.29060918 L3.38261975,0.69490581 C3.38261975,0.334383769 3.08707079,0.0395034709 2.72573124,0.0395034709 L0.772191607,0.0395034709 C0.410852056,0.0395034709 0.115303095,0.334383769 0.115303095,0.69490581 L0.115303095,2.29060918 L0.115303095,3.99814037 L0.115303095,7.95694644 L0.115303095,11.9154142 L0.115303095,15.2188179 L0.115303095,15.8742202 C0.115303095,17.4655249 0.338787622,18.9184406 0.783721916,20.2028532 C1.22865621,21.4870967 1.89487071,22.6030063 2.7796524,23.5199605 C3.66460365,24.4369148 4.76846121,25.1549136 6.08851208,25.6436739 C7.40856295,26.1324342 8.94514625,26.3921251 10.695549,26.3921251 C12.4557864,26.3921251 13.9994913,26.1349719 15.3251378,25.6485801 C16.6507842,25.1621883 17.7580331,24.4467272 18.6455278,23.529773 C19.5328529,22.6129879 20.2002543,21.4945406 20.6458669,20.2030224 C21.0913099,18.911335 21.314964,17.4462384 21.314964,15.8354781 L21.314964,15.1800757 L21.314964,11.8864844 L21.314964,7.93765995 L21.314964,3.98849712 L21.314964,1.32053251 L21.314964,0.69490581 C21.314964,0.334383769 21.019415,0.0395034709 20.6580755,0.0395034709" id="Fill-12" fill="#FFFFFF" mask="url(#mask-4)"></path>
                </g>
                <path d="M156.303101,20.438218 C156.086952,20.9865733 155.767679,21.4588669 155.35382,21.8451041 C154.940303,22.2313414 154.432199,22.5313528 153.839241,22.734805 C153.246282,22.9382572 152.568127,23.04515 151.814167,23.04515 L149.806849,23.04515 L147.799532,23.04515 L147.138109,23.04515 L145.792214,23.04515 L144.44649,23.04515 C144.082656,23.04515 143.785067,22.7497124 143.785067,22.3888855 L143.785067,20.8103949 L143.785067,19.2322431 L143.785067,18.5759786 L143.785067,17.919714 L143.785067,16.3413928 L143.785067,14.763241 C143.785067,14.4022447 144.082656,14.1068071 144.44649,14.1068071 L145.792214,14.1068071 L147.138109,14.1068071 L147.799532,14.1068071 L148.460955,14.1068071 L149.806849,14.1068071 L151.152744,14.1068071 C151.516578,14.1068071 152.111244,14.1245943 152.474395,14.1462778 C152.474395,14.1462778 152.500517,14.1479719 152.54781,14.1515293 C153.04345,14.2067544 153.498456,14.3134779 153.905315,14.4716996 C154.505786,14.7056442 155.008767,15.0420772 155.412553,15.4523696 C155.816509,15.8628313 156.12144,16.3474913 156.325125,16.8773817 C156.528811,17.4074415 156.631763,17.9832399 156.631763,18.5758092 C156.631763,19.2656153 156.51925,19.8898628 156.303101,20.438218 Z M143.785067,9.79856781 L143.785067,9.1421339 L143.785067,8.48586939 L143.785067,7.70966805 L143.785067,7.05340355 L143.785067,6.39713904 L143.785067,5.6207683 L143.785067,4.96450379 L143.785067,4.30806988 L143.785067,3.53203795 C143.785067,3.17104164 144.082656,2.87560403 144.44649,2.87560403 L145.081791,2.87560403 L145.743214,2.87560403 L146.404636,2.87560403 L147.040108,2.87560403 L147.701701,2.87560403 L148.363124,2.87560403 L148.998595,2.87560403 L149.660018,2.87560403 L150.321441,2.87560403 L150.956912,2.87560403 C151.220355,2.87560403 151.604676,2.88085551 151.935217,2.88830921 C152.539103,2.9174464 153.084426,3.02349224 153.561286,3.20356689 C154.121464,3.41498096 154.592518,3.72075211 154.97206,4.09987445 C155.351601,4.478658 155.639117,4.93045393 155.831875,5.43323995 C156.024634,5.93602598 156.122464,6.4898021 156.122464,7.07288481 C156.122464,7.66545405 156.024634,8.2216018 155.831875,8.72269381 C155.639117,9.2236164 155.351601,9.66931385 154.97206,10.0409825 C154.592518,10.4124817 154.121464,10.7099522 153.561286,10.9147596 C153.109695,11.0797574 152.597323,11.1808906 152.031511,11.2151098 C151.68219,11.2242576 151.246818,11.2310337 150.956912,11.2310337 L150.321441,11.2310337 L149.660018,11.2310337 L148.998595,11.2310337 L148.363124,11.2310337 L147.701701,11.2310337 L147.040108,11.2310337 L146.404636,11.2310337 L145.743214,11.2310337 L145.081791,11.2310337 L144.44649,11.2310337 C144.082656,11.2310337 143.785067,10.9357654 143.785067,10.5747691 L143.785067,9.79856781 Z M159.595532,16.678334 C159.335504,15.9685384 158.95989,15.3090552 158.497201,14.7334262 C158.467322,14.6963271 158.434883,14.6595668 158.400736,14.6231453 C157.958023,14.0961347 157.444627,13.6411202 156.877108,13.2914738 C156.269466,12.9167559 155.603604,12.6592644 154.908376,12.5523716 C155.505603,12.4259975 156.090708,12.1952715 156.632446,11.8691721 C157.137135,11.5652644 157.601361,11.1754697 158.005317,10.7135096 C158.037244,10.6806456 158.067635,10.6474427 158.095635,10.6140705 C158.519055,10.1063718 158.867864,9.51261673 159.110818,8.84161422 C159.353772,8.17061171 159.491042,7.42253116 159.491042,6.60652028 C159.491042,5.63482869 159.317065,4.73614949 158.9855,3.93470721 C158.688764,3.21745788 158.258856,2.58355447 157.720703,2.03926488 C157.659581,1.97082635 157.597263,1.90560647 157.532555,1.84580746 C157.473822,1.79176812 157.408944,1.73908401 157.341333,1.68741631 C156.745813,1.18141164 156.041536,0.771119267 155.227819,0.485676393 C154.328222,0.169910506 153.302624,0 152.166561,0 L151.505139,0 L149.258452,0 L147.011766,0 L146.350343,0 L145.68892,0 L143.442234,0 L141.195547,0 C140.831714,0 140.534125,0.295268208 140.534125,0.656264508 L140.534125,6.48014616 L140.534125,12.3040278 L140.534125,12.9602923 L140.534125,13.6165568 L140.534125,19.4404385 L140.534125,25.2644895 C140.534125,25.6254859 140.831714,25.9207541 141.195547,25.9207541 L143.510698,25.9207541 L145.826019,25.9207541 L146.487442,25.9207541 L147.149036,25.9207541 L149.464187,25.9207541 L151.779508,25.9207541 L152.440931,25.9207541 C153.635555,25.9207541 154.705373,25.7433899 155.637922,25.4125472 C156.482542,25.1128745 157.20799,24.6814068 157.818534,24.1474508 C157.887169,24.0935809 157.953072,24.0390333 158.012488,23.9826223 C158.077879,23.9204517 158.140879,23.8520132 158.202344,23.7805254 C158.753472,23.2060822 159.190551,22.5350797 159.491042,21.7727694 C159.826364,20.9222004 160,19.9652468 160,18.9256249 C160,18.1484072 159.85573,17.3881296 159.595532,16.678334 Z" id="Fill-15" fill="#FFFFFF"></path>
            </g>
        </g>
    </g>
</svg>