<?xml version="1.0" encoding="UTF-8"?>
<svg width="162px" height="162px" viewBox="0 0 162 162" version="1.1" xmlns="http://www.w3.org/2000/svg" xmlns:xlink="http://www.w3.org/1999/xlink">
    <!-- Generator: Sketch 52.4 (67378) - http://www.bohemiancoding.com/sketch -->
    <title>h5/Graphics / Custom Icons / Customer / Logo / app_ic_blue_162</title>
    <desc>Created with Sketch.</desc>
    <defs>
        <linearGradient x1="50%" y1="0%" x2="50%" y2="100%" id="linearGradient-1">
            <stop stop-color="#0790D8" offset="0%"></stop>
            <stop stop-color="#0072BF" offset="100%"></stop>
        </linearGradient>
        <polygon id="path-2" points="0.000230705737 0.0528836777 109.27285 0.0528836777 109.27285 56.5904403 0.000230705737 56.5904403"></polygon>
    </defs>
    <g id="Graphics-/-Custom-Icons-/-Customer-/-Logo-/-app_ic_blue_162" stroke="none" stroke-width="1" fill="none" fill-rule="evenodd">
        <g id="瓴里" transform="translate(1.000000, 1.000000)">
            <rect id="Rectangle-2" fill="url(#linearGradient-1)" x="0" y="0" width="160" height="160" rx="35.625"></rect>
            <g id="Group" transform="translate(25.000000, 25.000000)">
                <g id="Group-3" transform="translate(0.000000, 0.010799)">
                    <mask id="mask-3" fill="white">
                        <use xlink:href="#path-2"></use>
                    </mask>
                    <g id="Clip-2"></g>
                    <path d="M21.7427084,46.2846378 C30.190768,39.6569334 43.821632,27.5101658 43.821632,27.5101658 C43.821632,27.5101658 48.2488751,23.290968 54.6578805,23.290968 C61.0945706,23.290968 65.4937445,27.5101658 65.4937445,27.5101658 C65.4937445,27.5101658 79.570255,40.2125953 87.4884605,46.2846378 C93.1938134,50.6598041 101.87181,54.1677548 109.226709,56.5904403 C109.246703,55.9872598 109.27285,55.2422898 109.27285,54.6345107 C109.27285,24.4896647 85.0126034,0.0528070347 54.7663122,0.0528070347 C24.5196365,0.0528070347 0.000230705737,24.4896647 0.000230705737,54.6345107 C0.000230705737,55.2905749 0.026377356,55.9401244 0.0498324393,56.5904403 C6.95908477,54.3402015 15.9685283,50.814623 21.7427084,46.2846378" id="Fill-1" fill="#FFFFFF" mask="url(#mask-3)"></path>
                </g>
                <path d="M85.808852,61.6455652 C82.8858103,58.7078385 77.8202813,53.1309098 72.3544779,47.2209672 C62.8690115,36.9645995 46.0540238,36.8910222 36.6493044,47.2209672 C31.3138498,53.0818583 26.0949015,58.7308314 23.1949303,61.6455652 C18.1740045,66.6921242 10.0166341,71.3581508 3.52688172,74.4292362 C11.4504703,94.8480841 31.3269231,109.14852 54.6105151,109.14852 C77.8229729,109.14852 97.6479014,94.7488314 105.620323,74.4292362 C99.0675107,71.3535522 90.9324419,66.7952091 85.808852,61.6455652" id="Fill-4" fill="#FFFFFF"></path>
            </g>
        </g>
    </g>
</svg>