<?xml version="1.0" encoding="utf-8"?>
<!-- Generator: Adobe Illustrator 22.1.0, SVG Export Plug-In . SVG Version: 6.00 Build 0)  -->
<svg version="1.1" id="图层_1" xmlns="http://www.w3.org/2000/svg" xmlns:xlink="http://www.w3.org/1999/xlink" x="0px" y="0px"
	 viewBox="0 0 48 48" style="enable-background:new 0 0 48 48;" xml:space="preserve">
<style type="text/css">
	.st0{fill:#FCD210;}
	.st1{fill:#505050;}
</style>
<title>Graphics / Custom Label / detail_lb_happiness_48h5/</title>
<desc>Created with Sketch.</desc>
<g id="Graphics-_x2F_-Custom-Label-_x2F_-detail_x5F_lb_x5F_happiness_x5F_48">
	<g id="Group-11" transform="translate(15.000000, 23.000000)">
		<g id="Group" transform="translate(0.418118, 0.313589)">
		</g>
	</g>
	<g id="Group-7" transform="translate(3.000000, 1.000000)">
		<g id="Group-5" transform="translate(7.000000, 9.000000)">
			<g id="Group-4">
				<circle id="Oval" class="st0" cx="14" cy="14" r="13.6"/>
				<g id="Group-11_1_" transform="translate(4.590909, 12.954545)">
					<g id="Group_1_" transform="translate(0.437124, 0.327843)">
					</g>
				</g>
			</g>
			<g id="Group-2" transform="translate(7.054545, 8.981818)">
				<path id="Fill-4" class="st1" d="M1.9,3C1.1,3,0.4,2.3,0.4,1.5C0.4,0.7,1.1,0,1.9,0c0.8,0,1.5,0.7,1.5,1.5C3.4,2.3,2.8,3,1.9,3z
					"/>
				<path id="Fill-6" class="st1" d="M13.4,1.5c0,0.8-0.7,1.5-1.5,1.5c-0.8,0-1.5-0.7-1.5-1.5C10.5,0.7,11.1,0,12,0
					C12.8,0,13.4,0.7,13.4,1.5L13.4,1.5z"/>
				<path id="Rectangle-22" class="st1" d="M2,9c1.7,1.7,3.3,2.6,4.9,2.6c1.6,0,3.3-0.9,4.9-2.6l0,0c0.2-0.3,0.6-0.3,0.9,0
					c0.2,0.2,0.2,0.4,0.2,0.6l0,0c-0.1,0.6-2.4,3.2-6,3.2S1.1,10,1,9.5l0,0l0,0C1,9.2,1.2,8.9,1.5,8.8C1.7,8.8,1.9,8.8,2,9L2,9z"/>
			</g>
		</g>
		<g id="Group-6" transform="translate(19.500000, 0.000000)">
			<path id="Rectangle-28" class="st0" d="M1.5,0L1.5,0C2.3,0,3,0.7,3,1.5v4C3,6.3,2.3,7,1.5,7l0,0C0.7,7,0,6.3,0,5.5v-4
				C0,0.7,0.7,0,1.5,0z"/>
			<path id="Rectangle-28-Copy" class="st0" d="M1.5,39L1.5,39C2.3,39,3,39.7,3,40.5v4C3,45.3,2.3,46,1.5,46l0,0
				C0.7,46,0,45.3,0,44.5v-4C0,39.7,0.7,39,1.5,39z"/>
		</g>
		
			<g id="Group-6-Copy" transform="translate(21.427670, 23.244657) rotate(60.000000) translate(-21.427670, -23.244657) translate(19.927670, 0.244657)">
			<path id="Rectangle-28_1_" class="st0" d="M1.5,0L1.5,0C2.3,0,3,0.7,3,1.5l0,4C3,6.3,2.3,7,1.5,7l0,0C0.7,7,0,6.3,0,5.5l0-4
				C0,0.7,0.7,0,1.5,0z"/>
			<path id="Rectangle-28-Copy_1_" class="st0" d="M1.5,39L1.5,39C2.3,39,3,39.7,3,40.5l0,4C3,45.3,2.3,46,1.5,46l0,0
				C0.7,46,0,45.3,0,44.5l0-4C0,39.7,0.7,39,1.5,39z"/>
		</g>
		
			<g id="Group-6-Copy-3" transform="translate(21.281223, 22.598210) rotate(120.000000) translate(-21.281223, -22.598210) translate(19.781223, -0.901790)">
			<path id="Rectangle-28_2_" class="st0" d="M1.5,0L1.5,0C2.3,0,3,0.7,3,1.5l0,4C3,6.3,2.3,7,1.5,7l0,0C0.7,7,0,6.3,0,5.5l0-4
				C0,0.7,0.7,0,1.5,0z"/>
			<path id="Rectangle-28-Copy_2_" class="st0" d="M1.5,40L1.5,40C2.3,40,3,40.7,3,41.5l0,4C3,46.3,2.3,47,1.5,47l0,0
				C0.7,47,0,46.3,0,45.5l0-4C0,40.7,0.7,40,1.5,40z"/>
		</g>
	</g>
</g>
</svg>
