<?xml version="1.0" encoding="UTF-8"?>
<svg width="52px" height="52px" viewBox="0 0 52 52" version="1.1" xmlns="http://www.w3.org/2000/svg" xmlns:xlink="http://www.w3.org/1999/xlink">
    <!-- Generator: Sketch 51.3 (57544) - http://www.bohemiancoding.com/sketch -->
    <title>h5/Graphics / Custom Icons / Customer / list_ic_lanehuber_52</title>
    <desc>Created with Sketch.</desc>
    <defs>
        <linearGradient x1="20.5323712%" y1="11.4023282%" x2="84.064834%" y2="82.2297653%" id="linearGradient-1">
            <stop stop-color="#ED3F35" offset="0%"></stop>
            <stop stop-color="#E50E02" offset="100%"></stop>
        </linearGradient>
        <linearGradient x1="23.5612224%" y1="7.37426608%" x2="76.3772542%" y2="92.7543193%" id="linearGradient-2">
            <stop stop-color="#3296F3" offset="0%"></stop>
            <stop stop-color="#0065C4" offset="100%"></stop>
        </linearGradient>
    </defs>
    <g id="Graphics-/-Custom-Icons-/-Customer-/-list_ic_lanehuber_52" stroke="none" stroke-width="1" fill="none" fill-rule="evenodd">
        <g id="ic_l-28" transform="translate(1.000000, 1.000000)">
            <path d="M0.892857143,24.9999651 C0.892857143,38.3140033 11.6859701,49.1071429 25,49.1071429 C38.3139846,49.1071429 49.1071429,38.3139788 49.1071429,24.9999651 C49.1071429,11.6860108 38.3139742,0.892857143 25,0.892857143 C11.6859805,0.892857143 0.892857143,11.6859863 0.892857143,24.9999651 Z" id="Page-1" stroke="#FFFFFF" stroke-width="1.78571429" fill="url(#linearGradient-1)"></path>
            <path d="M-0.735294118,24.9999651 C-0.735294118,10.7867834 10.7867772,-0.735294118 25,-0.735294118 C39.2131768,-0.735294118 50.7352941,10.7868071 50.7352941,24.9999651 C50.7352941,39.2131817 39.2131879,50.7352941 25,50.7352941 C10.7867661,50.7352941 -0.735294118,39.2132055 -0.735294118,24.9999651 Z" id="Page-1" stroke="#FFFFFF" stroke-width="1.47058824" fill="url(#linearGradient-2)"></path>
            <g id="Group-4" transform="translate(12.500000, 10.714286)" fill="#FFFFFF">
                <path d="M19.3766653,0.519906405 L8.48048844,21.8015222 C8.39059661,21.9770923 8.46005261,22.1922917 8.63562275,22.2821836 C8.68600119,22.3079773 8.74178856,22.3214286 8.7983863,22.3214286 L21.0714286,22.3214286 C21.2686731,22.3214286 21.4285714,22.4813269 21.4285714,22.6785714 L21.4285714,26.4285714 C21.4285714,26.625816 21.2686731,26.7857143 21.0714286,26.7857143 L0.581320903,26.7857143 C0.38407635,26.7857143 0.224178046,26.625816 0.224178046,26.4285714 C0.224178046,26.3724848 0.237387553,26.3171866 0.26273675,26.2671553 L13.4722712,0.195726756 C13.5331019,0.0756662327 13.6562637,6.30950031e-16 13.7908553,-1.11022302e-16 L19.0587675,-4.21884749e-15 C19.256012,-4.25508073e-15 19.4159103,0.159898304 19.4159103,0.357142857 C19.4159103,0.413740592 19.4024591,0.469527969 19.3766653,0.519906405 Z" id="L"></path>
                <path d="M18.9285605,20.5357143 L21.0714286,20.5357143 C21.2686731,20.5357143 21.4285714,20.6956126 21.4285714,20.8928571 L21.4285714,26.4285714 C21.4285714,26.625816 21.2686731,26.7857143 21.0714286,26.7857143 L18.9285605,26.7857143 C18.731316,26.7857143 18.5714177,26.625816 18.5714177,26.4285714 L18.5714177,20.8928571 C18.5714177,20.6956126 18.731316,20.5357143 18.9285605,20.5357143 Z" id="Rectangle-5"></path>
            </g>
        </g>
    </g>
</svg>