<?xml version="1.0" encoding="utf-8"?>
<!-- Generator: Adobe Illustrator 22.1.0, SVG Export Plug-In . SVG Version: 6.00 Build 0)  -->
<svg version="1.1" id="图层_1" xmlns="http://www.w3.org/2000/svg" xmlns:xlink="http://www.w3.org/1999/xlink" x="0px" y="0px"
	 viewBox="0 0 122 122" style="enable-background:new 0 0 122 122;" xml:space="preserve">
<style type="text/css">
	.st0{fill:#FFFFFF;}
	.st1{filter:url(#Adobe_OpacityMaskFilter);}
	.st2{mask:url(#mask-2_1_);fill:#D4D4D4;}
</style>
<title>me_ic_error_slice</title>
<desc>Created with Sketch.</desc>
<g id="动态单页">
	<g id="Artboard" transform="translate(-314.000000, -469.000000)">
		<g id="me_ic_error" transform="translate(315.000000, 470.000000)">
			<g id="Mask">
				<circle id="path-1_1_" class="st0" cx="60" cy="60" r="60"/>
			</g>
			<defs>
				<filter id="Adobe_OpacityMaskFilter" filterUnits="userSpaceOnUse" x="0" y="0" width="120" height="120">
					<feColorMatrix  type="matrix" values="1 0 0 0 0  0 1 0 0 0  0 0 1 0 0  0 0 0 1 0"/>
				</filter>
			</defs>
			<mask maskUnits="userSpaceOnUse" x="0" y="0" width="120" height="120" id="mask-2_1_">
				<g class="st1">
					<circle id="path-1_2_" class="st0" cx="60" cy="60" r="60"/>
				</g>
			</mask>
			<path id="Shape" class="st2" d="M60,120C26.9,120,0,93.1,0,60S26.9,0,60,0s60,26.9,60,60S93.1,120,60,120z M79,62.5
				c2.3-3.6,3.9-8.1,3.9-12.6c0-12.6-10-22.7-22.7-22.7c-12.6,0-22.7,10.1-22.7,22.7c0,4.5,1.3,9.1,3.9,12.6
				c-8.1,5.8-13.6,15.6-13.6,26.3c0,1.9,1.3,3.2,3.2,3.2c1.9,0,3.2-1.3,3.2-3.2c0-9.1,4.5-16.9,11.3-21.4c3.9,3.2,9.1,5.2,14.6,5.2
				c5.5,0,10.7-1.9,14.6-5.2c6.8,4.5,11.3,12.7,11.3,21.4c0,1.9,1.3,3.2,3.2,3.2c1.9,0,3.2-1.3,3.2-3.2C92.6,78.1,87.1,68.3,79,62.5
				z M60.2,66.1c-9.1,0-16.2-7.1-16.2-16.2s7.1-16.2,16.2-16.2s16.2,7.1,16.2,16.2S69.3,66.1,60.2,66.1z"/>
		</g>
	</g>
</g>
</svg>
