<?xml version="1.0" encoding="UTF-8"?>
<svg width="16px" height="22px" viewBox="0 0 16 22" version="1.1" xmlns="http://www.w3.org/2000/svg" xmlns:xlink="http://www.w3.org/1999/xlink">
    <!-- Generator: Sketch 53.2 (72643) - https://sketchapp.com -->
    <title>h5/Graphics / Top Bar Icons / Light / shoplist_price01</title>
    <desc>Created with Sketch.</desc>
    <g id="Graphics-/-Top-Bar-Icons-/-Light-/-shoplist_price01" stroke="none" stroke-width="1" fill="none" fill-rule="evenodd">
        <path d="M14.2201157,13.3877508 L1.7839774,13.3877508 C1.17136064,13.3877508 0.803790579,13.7945432 1.11009896,14.1074604 C1.56956153,14.608128 7.0524936,20.4596743 7.3281531,20.7413121 C7.66509232,21.1168128 8.40023243,21.0542293 8.70654382,20.7413121 C8.92095999,20.5222697 14.557052,14.4516571 14.8939792,14.1074604 C15.2002875,13.7632515 14.8020866,13.4190425 14.2201007,13.3877508 L14.2201157,13.3877508 Z M1.7839774,8.63140259 L14.2201157,8.63140259 C14.8021017,8.63140259 15.2003026,8.2559019 14.8939942,7.91169294 C14.557055,7.56748397 8.92098074,1.49688951 8.67594005,1.24656186 C8.40026221,0.933644624 7.66512239,0.9023529 7.29754933,1.24656186 C7.05250232,1.5594791 1.56957657,7.41103764 1.110114,7.91169294 C0.803805618,8.22461018 1.17137568,8.63140259 1.78399244,8.63140259 L1.7839774,8.63140259 Z" id="Shape" fill="#777777" fill-rule="nonzero"></path>
    </g>
</svg>