<?xml version="1.0" encoding="UTF-8"?>
<svg width="30px" height="30px" viewBox="0 0 30 30" version="1.1" xmlns="http://www.w3.org/2000/svg" xmlns:xlink="http://www.w3.org/1999/xlink">
    <!-- Generator: Sketch 51.2 (57519) - http://www.bohemiancoding.com/sketch -->
    <title>h5/Graphics / Custom Label / activity_lb_blue</title>
    <desc>Created with Sketch.</desc>
    <defs></defs>
    <g id="Graphics-/-Custom-Label-/-activity_lb_blue" stroke="none" stroke-width="1" fill="none" fill-rule="evenodd">
        <g id="me_ic_activity" transform="translate(1.000000, 1.000000)" fill="#1970CE" fill-rule="nonzero">
            <path d="M22,1.97771858 L22,0.793083629 C22,0.35504678 21.6397251,1.13686838e-13 21,1.13686838e-13 C20.3602749,1.13686838e-13 20,0.355110643 20,0.793083629 L20,1.97771858 L8,1.97771858 L8,0.793083629 C8,0.35504678 7.645784,1.13686838e-13 7,0.0165912795 C6.354216,0.033182559 5.99617254,0.355110643 5.99617254,0.793083629 L5.99617254,1.97771858 L2.21568981,1.97771858 C0.954049278,1.97771858 0,2.7521474 0,4.04096816 L0,25.6626752 C0,26.951496 1.02642101,28 2.28815531,28 L25.7118447,28 C26.9734852,28 28,26.951496 28,25.6626752 L28,4.04103203 C28,2.75221126 26.973579,1.97771858 25.7118447,1.97771858 L22,1.97771858 Z M2.8,4 L6.00219727,4 L6.00219727,5.26292179 C6.00219727,5.68677939 6.3644494,6 7,6 C7.6355506,6 8,5.65638428 8,5.23258847 L8,4 L20,4 L20,5.23258847 C20,5.65644608 20.4594093,6 21,6 C21.5405907,6 22,5.65638428 22,5.23258847 L22,4 L25.2,4 C25.6127332,4 26,4.36885458 26,4.76956965 L26,8 L1.99998506,8 L2,4.76956965 C2.00019083,4.36885458 2.38726679,4 2.8,4 Z M2.70910371,26 C2.31809331,26 2,25.6774979 2,25.2810871 L2,8 L26,8 L26,25.2810565 C26,25.6774979 25.6819067,26 25.2909264,26 L2.70910371,26 Z" id="Shape"></path>
        </g>
        <path d="M14.6852509,21.6135908 L10.7585541,23.9141433 C10.4618651,24.0879659 10.0804402,23.988363 9.90661768,23.6916741 C9.82614734,23.5543233 9.80134351,23.3913666 9.83730371,23.2362939 L10.8444617,18.8930816 C10.896823,18.6672819 10.8194148,18.4310876 10.6435622,18.2800806 L7.23794866,15.3556331 C6.97707451,15.1316169 6.94719527,14.7385356 7.1712115,14.4776614 C7.27698975,14.3544792 7.42670379,14.2774918 7.58843247,14.2631139 L12.1164232,13.8605696 C12.3432642,13.8404031 12.5409958,13.697996 12.6320133,13.4892393 L14.4292608,9.36709563 C14.5666883,9.05189368 14.933617,8.90777901 15.248819,9.04520651 C15.3928997,9.10802547 15.5078891,9.22301488 15.5707081,9.36709563 L17.3679556,13.4892393 C17.4589731,13.697996 17.6567047,13.8404031 17.8835457,13.8605696 L22.4115364,14.2631139 C22.754044,14.2935633 23.0070171,14.5959046 22.9765678,14.9384121 C22.9621899,15.1001408 22.8852024,15.2498549 22.7620202,15.3556331 L19.3564067,18.2800806 C19.1805541,18.4310876 19.1031459,18.6672819 19.1555072,18.8930816 L20.1626652,23.2362939 C20.2403422,23.5712638 20.031765,23.9057803 19.6967951,23.9834573 C19.5417223,24.0194175 19.3787656,23.9946137 19.2414149,23.9141433 L15.314718,21.6135908 C15.1203468,21.4997136 14.8796221,21.4997136 14.6852509,21.6135908 Z" id="Combined-Shape" fill="#1970CE"></path>
    </g>
</svg>