<?xml version="1.0" encoding="UTF-8"?>
<svg width="360px" height="190px" viewBox="0 0 360 190" version="1.1" xmlns="http://www.w3.org/2000/svg" xmlns:xlink="http://www.w3.org/1999/xlink">
    <!-- Generator: Sketch 50.2 (55047) - http://www.bohemiancoding.com/sketch -->
    <title>h5/Graphics / Custom Label / content_lb_sofa</title>
    <desc>Created with Sketch.</desc>
    <defs>
        <polygon id="path-1" points="0 0 214 0 214 103 0 103"></polygon>
    </defs>
    <g id="Graphics-/-Custom-Label-/-content_lb_sofa" stroke="none" stroke-width="1" fill="none" fill-rule="evenodd">
        <g id="Page-1" transform="translate(73.000000, 65.000000)">
            <mask id="mask-2" fill="white">
                <use xlink:href="#path-1"></use>
            </mask>
            <g id="Clip-2"></g>
            <path d="M200.76233,85.4442616 L12.7005824,85.4733539 C7.27570188,85.4738591 2.38461934,80.1148938 2.38461934,74.2707788 L2.37395317,19.9306848 C2.37395317,17.2743608 3.31255946,14.0925987 7.17872386,14.0164415 C13.9325654,13.8834017 16.6826974,17.336792 18.9786406,21.9043167 L24.6902273,34.3332893 C29.391714,45.9570312 25.4818454,57.7809304 23.16824,63.57889 L24.0516063,64.7354638 C25.8205076,62.9071571 48.6051575,49.7303413 64.791545,49.3851605 C92.7975845,46.5803086 121.150468,46.5803086 149.148066,49.3851605 C167.132131,51.9211568 174.962052,56.9740886 189.519101,64.7354638 C190.574826,63.9644146 191.102688,63.57889 191.102688,63.57889 C191.102688,63.57889 182.96149,45.163018 189.519101,34.7984511 L195.02089,21.9043167 C197.01958,17.2206385 201.795702,13.4444471 206.381944,14.0516099 C209.89796,14.5170877 211.61089,17.2423451 211.61089,19.8991743 L211.61089,74.2437029 C211.61089,80.1164051 206.187211,85.4442616 200.76233,85.4442616 Z M192.858003,93.8111755 C191.93778,93.8111755 190.66352,93.1766752 190.66352,91.6635633 C190.66352,90.654822 190.66352,89.3651694 190.66352,87.7946056 L194.673542,87.8192117 L194.649388,91.6635633 C194.649388,93.1723369 193.778225,93.8111755 192.858003,93.8111755 Z M23.0756236,91.580501 C23.0756236,92.9334352 22.4816452,94.1995459 21.2004427,94.1995459 C19.9192401,94.1995459 19.34297,93.236271 19.34297,91.580501 L19.3448224,87.7791079 L23.0756236,87.7851172 L23.0756236,91.580501 Z M26.7007124,14.0597511 C32.5218606,14.0597511 36.5843051,14.928165 38.6800685,19.845244 L44.3271012,33.4558192 C46.5311934,38.6224654 47.794426,45.0732644 47.0103319,50.6688226 C40.4599575,52.989696 32.0787589,56.9010315 26.2102462,60.8622785 C29.8845148,52.3729539 30.2117115,42.0946616 26.431459,33.2365434 L20.8871396,20.8156716 C19.9342215,18.5811868 17.2436201,15.2822532 15.3170675,14.0484383 L26.7007124,14.0597511 Z M107.000234,2.34090909 L169.283659,2.34090909 C171.254211,2.34090909 173.332482,5.17860697 173.6858,7.2308622 C174.373444,11.2250528 174.568506,15.5764468 174.44458,17.1245181 C173.776318,18.082371 173.109869,19.2343524 172.600583,20.4296477 L167.099263,33.3227716 C164.844993,38.6081391 163.959135,44.3476783 164.486241,50.0791344 C159.60957,48.5923406 154.600653,47.5617394 149.509669,47.023705 C121.302448,44.1981401 92.698021,44.1986453 64.4818893,47.0242102 C59.394657,47.5617394 54.388554,48.5918354 49.5142275,50.078124 C50.0408649,44.3471731 49.1550074,38.6076339 46.900268,33.3217612 L41.3994167,20.4301529 C40.8901307,19.2348576 39.9709744,17.6788156 39.449214,16.7046767 C39.1041585,15.2177527 39.4743009,10.999708 40.2776221,7.10615734 C40.7010892,5.05505891 42.7457887,2.34090909 44.7163409,2.34090909 L107.000234,2.34090909 Z M198.23936,13.9510304 C196.538458,15.4448969 193.643708,19.4537549 192.690321,21.6882397 L187.265514,33.6749009 C183.485261,42.5330191 183.994066,53.8397522 188.590658,62.0580316 C182.722614,58.097795 173.841366,53.2995298 167.290523,50.9786563 C166.506429,45.3820877 166.708267,40.101724 168.911421,34.935583 L174.856833,21.2379789 C176.952127,16.3208999 181.070262,14.0312087 186.892817,14.0312087 L198.23936,13.9510304 Z M204.458654,11.7242211 L186.998783,11.6951288 C183.150531,11.6951288 180.036815,12.1545264 177.540095,13.9535317 C177.415352,11.7463275 177.156489,8.90964828 176.619534,6.30738029 C175.864985,2.65278766 172.779724,0 169.283659,0 L107.000234,0 L44.7163409,0 C41.2202755,0 38.1359533,2.65278766 37.3809345,6.30738029 C36.8439802,8.90964828 36.5846476,11.7463275 36.4599054,13.9535317 C33.9631848,12.1540212 30.7625372,11.7023919 26.9152239,11.7023919 L9.44295392,11.7023919 C8.73295486,11.6549034 7.03983264,11.7044766 6.31670282,11.769647 C2.17160264,12.1419769 0,15.4398203 0,19.9209147 L0,74.2911895 C0,82.07627 6.02721702,87.7798481 13.2533567,87.7798481 L16.9354584,87.8005367 L16.9354584,91.4182308 C16.9354584,93.265735 17.9218959,96.1325695 21.2281003,96.1325695 C24.5343046,96.1325695 25.6898803,93.4343186 25.6898803,91.4182308 C25.6898803,90.0741722 25.6898803,88.8565583 25.6898803,87.7653891 L188.220978,87.7838155 L188.220978,91.5794907 C188.220978,94.2417557 190.261047,96.2130072 193.063132,96.2130072 C195.865217,96.2130072 197.117592,93.4275 197.117592,91.5794907 L197.100161,87.8206685 L200.86888,87.802242 C208.09502,87.802242 214,82.0752596 214,74.2906843 L214,19.9209147 C214,15.4398203 210.977816,12.1838281 206.832716,11.8114982 C206.109586,11.7463278 205.168653,11.675217 204.458654,11.7242211 Z" id="Fill-1" fill="#CDCDCD" mask="url(#mask-2)"></path>
        </g>
        <g id="Group" transform="translate(297.000000, 16.000000)" stroke="#CDCDCD">
            <path d="M13.398205,1.2 L2.11852495,26.8645161 L58.8811533,26.8645161 L47.6014732,1.2 L13.398205,1.2 Z" id="Rectangle-10" stroke-width="2.4"></path>
            <path d="M31.5,32.5725876 L31.4992425,141.673981 C31.4992425,142.777959 30.6047347,143.673144 29.5008423,143.67398 L11.7654634,143.688924 C11.7654634,143.688924 11.7654634,143.688924 11.7654604,143.691359 L11.7647059,144 L51.7022059,144 L51.7022059,143.688924 L33.9669118,143.688924 C32.8623423,143.688924 31.9669118,142.793493 31.9669118,141.688924 L31.9669118,32.5725806 L31.5,32.5725806 Z" id="Rectangle-11" stroke-width="2"></path>
        </g>
    </g>
</svg>