<?xml version="1.0" encoding="UTF-8"?>
<svg width="38px" height="38px" viewBox="0 0 38 38" version="1.1" xmlns="http://www.w3.org/2000/svg" xmlns:xlink="http://www.w3.org/1999/xlink">
    <!-- Generator: Sketch 49 (51002) - http://www.bohemiancoding.com/sketch -->
    <title>1 icon/content/list_ic_v-36</title>
    <desc>Created with Sketch.</desc>
    <defs>
        <linearGradient x1="20.5323712%" y1="11.4023282%" x2="84.064834%" y2="82.2297653%" id="linearGradient-1">
            <stop stop-color="#ED3F35" offset="0%"></stop>
            <stop stop-color="#E50E02" offset="100%"></stop>
        </linearGradient>
        <path d="M0,17.9999749 C0,27.9411126 8.05884834,36 18,36 C27.9411014,36 36,27.9411126 36,17.9999749 C36,8.05888736 27.9411014,0 18,0 C8.05884834,0 0,8.05888736 0,17.9999749 Z" id="path-2"></path>
    </defs>
    <g id="1-icon/content/list_ic_v-36" stroke="none" stroke-width="1" fill="none" fill-rule="evenodd">
        <g id="list_ic_v" transform="translate(1.000000, 1.000000)">
            <g id="Page-1">
                <use fill="url(#linearGradient-1)" fill-rule="evenodd" xlink:href="#path-2"></use>
                <path stroke="#FFFFFF" stroke-width="1.05882353" d="M-0.529411765,17.9999749 C-0.529411765,7.76648401 7.76647959,-0.529411765 18,-0.529411765 C28.2334873,-0.529411765 36.5294118,7.76650115 36.5294118,17.9999749 C36.5294118,28.2334908 28.2334953,36.5294118 18,36.5294118 C7.76647159,36.5294118 -0.529411765,28.233508 -0.529411765,17.9999749 Z"></path>
            </g>
            <path d="M10.8791267,11.185925 L9.21176471,11.185925 C9.09481029,11.185925 9,11.0911147 9,10.9741603 L9,9.21176471 C9,9.09481029 9.09481029,9 9.21176471,9 L14.0288456,9 C14.1458,9 14.2406103,9.09481029 14.2406103,9.21176471 L14.2406103,20.2482966 C14.2406103,20.365251 14.3354205,20.4600613 14.452375,20.4600613 C14.5129078,20.4600613 14.5705469,20.4341565 14.6107352,20.3888894 L24.6586441,9.07117194 C24.6988324,9.02590477 24.7564715,9 24.8170043,9 L29.4276061,9 C29.5445605,9 29.6393708,9.09481029 29.6393708,9.21176471 C29.6393708,9.2663223 29.6183143,9.3187749 29.5805906,9.35818878 L11.4556407,28.2952232 C11.3747729,28.3797142 11.2407231,28.3826515 11.156232,28.3017837 C11.1144953,28.2618368 11.0908914,28.206572 11.0908914,28.1487991 L11.0908914,11.3976897 C11.0908914,11.2807353 10.9960811,11.185925 10.8791267,11.185925 Z" id="Shape" fill="#FFFFFF" fill-rule="nonzero"></path>
        </g>
    </g>
</svg>