<?xml version="1.0" encoding="UTF-8"?>
<svg width="38px" height="38px" viewBox="0 0 38 38" version="1.1" xmlns="http://www.w3.org/2000/svg" xmlns:xlink="http://www.w3.org/1999/xlink">
    <!-- Generator: Sketch 49 (51002) - http://www.bohemiancoding.com/sketch -->
    <title>1 icon/content/list_ic_l-36</title>
    <desc>Created with Sketch.</desc>
    <defs>
        <linearGradient x1="20.5323712%" y1="11.4023282%" x2="84.064834%" y2="82.2297653%" id="linearGradient-1">
            <stop stop-color="#ED3F35" offset="0%"></stop>
            <stop stop-color="#E50E02" offset="100%"></stop>
        </linearGradient>
        <path d="M0,17.9999749 C0,27.9411126 8.05884834,36 18,36 C27.9411014,36 36,27.9411126 36,17.9999749 C36,8.05888736 27.9411014,0 18,0 C8.05884834,0 0,8.05888736 0,17.9999749 Z" id="path-2"></path>
        <linearGradient x1="79.8380376%" y1="86.2178646%" x2="27.8155083%" y2="6.07849367%" id="linearGradient-3">
            <stop stop-color="#218AFD" offset="0%"></stop>
            <stop stop-color="#499BE3" offset="100%"></stop>
        </linearGradient>
        <path d="M0,17.9999749 C0,27.9411126 8.05884834,36 18,36 C27.9411014,36 36,27.9411126 36,17.9999749 C36,8.05888736 27.9411014,0 18,0 C8.05884834,0 0,8.05888736 0,17.9999749 Z" id="path-4"></path>
    </defs>
    <g id="1-icon/content/list_ic_l-36" stroke="none" stroke-width="1" fill="none" fill-rule="evenodd">
        <g id="ic_l-28" transform="translate(1.000000, 1.000000)">
            <g id="Page-1">
                <use fill="url(#linearGradient-1)" fill-rule="evenodd" xlink:href="#path-2"></use>
                <path stroke="#FFFFFF" stroke-width="1.28571429" d="M0.642857143,17.9999749 C0.642857143,27.5860824 8.41389848,35.3571429 18,35.3571429 C27.5860689,35.3571429 35.3571429,27.5860647 35.3571429,17.9999749 C35.3571429,8.41392775 27.5860614,0.642857143 18,0.642857143 C8.41390597,0.642857143 0.642857143,8.41391011 0.642857143,17.9999749 Z"></path>
            </g>
            <g id="Page-1">
                <use fill="url(#linearGradient-3)" fill-rule="evenodd" xlink:href="#path-4"></use>
                <path stroke="#FFFFFF" stroke-width="1.05882353" d="M-0.529411765,17.9999749 C-0.529411765,7.76648401 7.76647959,-0.529411765 18,-0.529411765 C28.2334873,-0.529411765 36.5294118,7.76650115 36.5294118,17.9999749 C36.5294118,28.2334908 28.2334953,36.5294118 18,36.5294118 C7.76647159,36.5294118 -0.529411765,28.233508 -0.529411765,17.9999749 Z"></path>
            </g>
            <g id="Group-4" transform="translate(9.000000, 7.714286)" fill="#FFFFFF">
                <path d="M13.951199,0.374332612 L6.10595168,15.697096 C6.04122956,15.8235065 6.09123788,15.9784501 6.21764838,16.0431722 C6.25392085,16.0617437 6.29408776,16.0714286 6.33483813,16.0714286 L15.1714286,16.0714286 C15.3134446,16.0714286 15.4285714,16.1865553 15.4285714,16.3285714 L15.4285714,19.0285714 C15.4285714,19.1705875 15.3134447,19.2857143 15.1714286,19.2857143 L0.41855105,19.2857143 C0.276534972,19.2857143 0.161408193,19.1705875 0.161408193,19.0285714 C0.161408193,18.9881891 0.170919038,18.9483743 0.18917046,18.9123518 L9.70003524,0.140923265 C9.74383335,0.0544796876 9.83250986,1.57211357e-15 9.92941583,1.55431223e-15 L13.7223126,-7.21644966e-16 C13.8643286,-7.47732896e-16 13.9794554,0.115126779 13.9794554,0.257142857 C13.9794554,0.297893226 13.9697705,0.338060137 13.951199,0.374332612 Z" id="L"></path>
                <path d="M13.6285636,14.7857143 L15.1714286,14.7857143 C15.3134446,14.7857143 15.4285714,14.9008411 15.4285714,15.0428571 L15.4285714,19.0285714 C15.4285714,19.1705875 15.3134446,19.2857143 15.1714286,19.2857143 L13.6285636,19.2857143 C13.4865475,19.2857143 13.3714207,19.1705875 13.3714207,19.0285714 L13.3714207,15.0428571 C13.3714207,14.9008411 13.4865475,14.7857143 13.6285636,14.7857143 Z" id="Rectangle-5"></path>
            </g>
        </g>
    </g>
</svg>