<?xml version="1.0" encoding="UTF-8"?>
<svg width="30px" height="30px" viewBox="0 0 30 30" version="1.1" xmlns="http://www.w3.org/2000/svg" xmlns:xlink="http://www.w3.org/1999/xlink">
    <!-- Generator: Sketch 50.2 (55047) - http://www.bohemiancoding.com/sketch -->
    <title>h5/Graphics / Custom Icons / Customer / list_ic_talent_30</title>
    <desc>Created with Sketch.</desc>
    <defs>
        <linearGradient x1="20.5323712%" y1="11.4023282%" x2="84.064834%" y2="82.2297653%" id="linearGradient-1">
            <stop stop-color="#F43227" offset="0%"></stop>
            <stop stop-color="#D60A07" offset="100%"></stop>
        </linearGradient>
    </defs>
    <g id="Graphics-/-Custom-Icons-/-Customer-/-list_ic_talent_30" stroke="none" stroke-width="1" fill="none" fill-rule="evenodd">
        <g id="list_ic_v" transform="translate(1.000000, 1.000000)">
            <path d="M-0.411764706,13.9999804 C-0.411764706,6.04059868 6.04059524,-0.411764706 14,-0.411764706 C21.959379,-0.411764706 28.4117647,6.040612 28.4117647,13.9999804 C28.4117647,21.9593818 21.9593852,28.4117647 14,28.4117647 C6.04058902,28.4117647 -0.411764706,21.9593951 -0.411764706,13.9999804 Z" id="Page-1" stroke="#FFFFFF" stroke-width="0.823529412" fill="url(#linearGradient-1)"></path>
            <path d="M8.46154297,8.70016388 L7.16470588,8.70016388 C7.07374134,8.70016388 7,8.62642254 7,8.53545799 L7,7.16470588 C7,7.07374134 7.07374134,7 7.16470588,7 L10.9113243,7 C11.0022889,7 11.0760302,7.07374134 11.0760302,7.16470588 L11.0760302,15.7486751 C11.0760302,15.8396397 11.1497715,15.913381 11.2407361,15.913381 C11.2878171,15.913381 11.3326476,15.8932329 11.3639052,15.8580251 L19.1789454,7.05535595 C19.210203,7.02014816 19.2550334,7 19.3021145,7 L22.888138,7 C22.9791026,7 23.0528439,7.07374134 23.0528439,7.16470588 C23.0528439,7.20713956 23.0364667,7.24793603 23.007126,7.27859128 L8.90994273,22.0073958 C8.84704557,22.0731111 8.7427846,22.0753956 8.67706934,22.0124984 C8.64460745,21.9814286 8.62624885,21.9384449 8.62624885,21.8935104 L8.62624885,8.86486976 C8.62624885,8.77390521 8.55250751,8.70016388 8.46154297,8.70016388 Z" id="Shape" fill="#FFFFFF" fill-rule="nonzero"></path>
        </g>
    </g>
</svg>