<?xml version="1.0" encoding="UTF-8"?>
<svg width="30px" height="30px" viewBox="0 0 30 30" version="1.1" xmlns="http://www.w3.org/2000/svg" xmlns:xlink="http://www.w3.org/1999/xlink">
    <!-- Generator: Sketch 51.2 (57519) - http://www.bohemiancoding.com/sketch -->
    <title>h5/Graphics / Custom Label / topic_lb_blue</title>
    <desc>Created with Sketch.</desc>
    <defs></defs>
    <g id="Graphics-/-Custom-Label-/-topic_lb_blue" stroke="none" stroke-width="1" fill="none" fill-rule="evenodd">
        <g id="Group" transform="translate(1.000000, 0.500000)" fill="#1970CE">
            <path d="M22.6473303,1.82363222 L22.6546815,1.82492843 L19.80258,18 L25,18 C25.5522847,18 26,18.4477153 26,19 C26,19.5522847 25.5522847,20 25,20 L19.449926,20 L18.1398289,27.42993 L18.1379969,27.429607 C18.041666,27.8812601 17.6403915,28.22 17.16,28.22 C16.6077153,28.22 16.16,27.7722847 16.16,27.22 C16.16,27.1410322 16.1691533,27.0642023 16.1864567,26.9905134 L17.4190728,20 L1,20 C0.44771525,20 0,19.5522847 0,19 C0,18.4477153 0.44771525,18 1,18 L17.7717267,18 L20.6552929,1.64648378 C20.6602605,1.59818072 20.6686662,1.55089689 20.6802613,1.50488106 L20.685066,1.47763207 L20.6874234,1.47804774 C20.8058817,1.05792322 21.1919812,0.75 21.65,0.75 C22.2022847,0.75 22.65,1.19771525 22.65,1.75 C22.65,1.77476464 22.6490998,1.79931902 22.6473303,1.82363222 Z" id="Combined-Shape"></path>
            <circle id="Combined-Shape" cx="3" cy="9" r="1"></circle>
            <polygon id="Rectangle-Copy" points="3 8 27.004114 8 27.004114 10 3 10"></polygon>
            <circle id="Oval-Copy-2" cx="27" cy="9" r="1"></circle>
            <path d="M7.13799686,27.429607 C7.04166602,27.8812601 6.64039149,28.22 6.16,28.22 C5.60771525,28.22 5.16,27.7722847 5.16,27.22 C5.16,27.1410322 5.16915325,27.0642023 5.18645667,26.9905134 L9.65529288,1.64648381 C9.66026051,1.59818072 9.66866624,1.55089689 9.68026127,1.50488106 L9.685066,1.47763207 L9.68742341,1.47804774 C9.80588168,1.05792322 10.1919812,0.75 10.65,0.75 C11.2022847,0.75 11.65,1.19771525 11.65,1.75 C11.65,1.77476464 11.6490998,1.79931902 11.6473303,1.82363222 L11.6546815,1.82492843 L7.13982889,27.42993 L7.13799686,27.429607 Z" id="Combined-Shape"></path>
        </g>
    </g>
</svg>