<?xml version="1.0" encoding="UTF-8"?>
<svg width="160px" height="160px" viewBox="0 0 160 160" version="1.1" xmlns="http://www.w3.org/2000/svg" xmlns:xlink="http://www.w3.org/1999/xlink">
    <!-- Generator: Sketch 51.2 (57519) - http://www.bohemiancoding.com/sketch -->
    <title>h5/Graphics / Custom Label / activity_lb_error</title>
    <desc>Created with Sketch.</desc>
    <defs>
        <circle id="path-1" cx="78.6885246" cy="78.6885246" r="78.6885246"></circle>
    </defs>
    <g id="Graphics-/-Custom-Label-/-activity_lb_error" stroke="none" stroke-width="1" fill="none" fill-rule="evenodd">
        <g id="me_ic_error" transform="translate(1.311475, 1.311475)">
            <mask id="mask-2" fill="white">
                <use xlink:href="#path-1"></use>
            </mask>
            <use id="Mask" fill="#D4D4D4" xlink:href="#path-1"></use>
        </g>
        <g id="me_ic_activity" transform="translate(38.000000, 38.000000)" fill="#FFFFFF">
            <path d="M66,5.93315573 L66,2.37925089 C66,1.06514034 64.9191752,1.13686838e-13 63,1.13686838e-13 C61.0808248,1.13686838e-13 60,1.06533193 60,2.37925089 L60,5.93315573 L24,5.93315573 L24,2.37925089 C24,1.06514034 22.937352,1.13686838e-13 21,0.0497738384 C19.062648,0.0995476769 17.9885176,1.06533193 17.9885176,2.37925089 L17.9885176,5.93315573 L6.64706944,5.93315573 C2.86214783,5.93315573 0,8.25644219 0,12.1229045 L0,76.9880257 C0,80.854488 3.07926302,84 6.86446592,84 L77.1355341,84 C80.9204557,84 84,80.854488 84,76.9880257 L84,12.1230961 C84,8.25663378 80.920737,5.93315573 77.1355341,5.93315573 L66,5.93315573 Z M8.4,12 L18.0065918,12 L18.0065918,15.7887654 C18.0065918,17.0603382 19.0933482,18 21,18 C22.9066518,18 24,16.9691528 24,15.6977654 L24,12 L60,12 L60,15.6977654 C60,16.9693382 61.3782279,18 63,18 C64.6217721,18 66,16.9691528 66,15.6977654 L66,12 L75.6,12 C76.8381996,12 78,13.1065637 78,14.3087089 L78,24 L5.99995519,24 L6,14.3087089 C6.00057249,13.1065637 7.16180038,12 8.4,12 Z M8.12731114,78 C6.95427992,78 6,77.0324936 6,75.8432612 L6,24 L78,24 L78,75.8431695 C78,77.0324936 77.0457201,78 75.8727792,78 L8.12731114,78 Z" id="Shape" fill-rule="nonzero"></path>
            <path d="M41.0557527,61.8407724 L29.2756622,68.74243 C28.3855954,69.2638976 27.2413207,68.965089 26.719853,68.0750222 C26.478442,67.6629699 26.4040305,67.1740999 26.5119111,66.7088816 L29.5333852,53.6792449 C29.690469,53.0018456 29.4582444,52.2932627 28.9306867,51.8402417 L18.713846,43.0668993 C17.9312235,42.3948506 17.8415858,41.2156067 18.5136345,40.4329842 C18.8309693,40.0634377 19.2801114,39.8324753 19.7652974,39.7893417 L33.3492695,38.5817088 C34.0297927,38.5212094 34.6229873,38.0939881 34.89604,37.467718 L40.2877825,25.1012869 C40.700065,24.155681 41.800851,23.723337 42.7464569,24.1356195 C43.1786991,24.3240764 43.5236674,24.6690446 43.7121242,25.1012869 L49.1038667,37.467718 C49.3769194,38.0939881 49.970114,38.5212094 50.6506372,38.5817088 L64.2346093,39.7893417 C65.262132,39.8806898 66.0210514,40.7877138 65.9297033,41.8152364 C65.8865696,42.3004225 65.6556073,42.7495646 65.2860607,43.0668993 L55.06922,51.8402417 C54.5416623,52.2932627 54.3094377,53.0018456 54.4665215,53.6792449 L57.4879956,66.7088816 C57.7210266,67.7137915 57.0952951,68.7173408 56.0903852,68.9503718 C55.6251668,69.0582525 55.1362968,68.983841 54.7242446,68.74243 L42.944154,61.8407724 C42.3610405,61.4991409 41.6388663,61.4991409 41.0557527,61.8407724 Z" id="Combined-Shape"></path>
        </g>
    </g>
</svg>