<?xml version="1.0" encoding="UTF-8"?>
<svg width="48px" height="48px" viewBox="0 0 48 48" version="1.1" xmlns="http://www.w3.org/2000/svg" xmlns:xlink="http://www.w3.org/1999/xlink">
    <!-- Generator: Sketch 50.2 (55047) - http://www.bohemiancoding.com/sketch -->
    <title>Graphics / Custom Label / detail_lb_happiness_48h5/</title>
    <desc>Created with Sketch.</desc>
    <defs></defs>
    <g id="Graphics-/-Custom-Label-/-detail_lb_happiness_48" stroke="none" stroke-width="1" fill="none" fill-rule="evenodd">
        <g id="Group-11" transform="translate(15.000000, 23.000000)">
            <g id="Group" transform="translate(0.418118, 0.313589)"></g>
        </g>
        <g id="Group-7" transform="translate(3.000000, 1.000000)">
            <g id="Group-5" transform="translate(7.000000, 9.000000)">
                <g id="Group-4">
                    <circle id="Oval" fill="#FCD210" cx="14" cy="14" r="13.5909091"></circle>
                    <g id="Group-11" transform="translate(4.590909, 12.954545)">
                        <g id="Group" transform="translate(0.437124, 0.327843)"></g>
                    </g>
                </g>
                <g id="Group-2" transform="translate(7.054545, 8.981818)" fill="#505050">
                    <path d="M1.94039469,3 C1.11111804,3 0.439896955,2.32596059 0.445489237,1.50014778 C0.445489237,0.667241379 1.11568016,0 1.94613414,0 C2.77423346,0 3.44545455,0.672857143 3.44545455,1.50014778 C3.44545455,2.33172414 2.77423346,3 1.94039469,3 Z" id="Fill-4"></path>
                    <path d="M13.4453074,1.51028404 C13.4408926,2.34298082 12.7707347,3.00455729 11.9359068,2.99997635 C11.1021091,2.99436101 10.4398977,2.32022389 10.4454897,1.4774786 C10.4524061,0.661775634 11.1293334,-0.00674614105 11.9573919,5.13836309e-05 C12.7864806,0.00463232418 13.4454545,0.673006327 13.4454545,1.51028404 L13.4453074,1.51028404 Z" id="Fill-6"></path>
                    <path d="M2.00278608,8.98486082 C3.66603219,10.6978353 5.31358834,11.5543226 6.94545455,11.5543226 C8.5880717,11.5543226 10.2218155,10.6865128 11.846686,8.95089339 L11.8466772,8.95088514 C12.0850852,8.69622754 12.4847939,8.68305466 12.7394515,8.92146269 C12.9001864,9.0719412 12.9709605,9.29526242 12.9262389,9.51085341 C12.9262389,9.51085341 12.9262389,9.51085341 12.9262389,9.51085341 C12.7999627,10.1195976 10.5581042,12.7422282 6.94545455,12.7422282 C3.3328049,12.7422282 1.14807714,10.0000836 1.03576627,9.51085341 C1.03576627,9.51085341 1.03576627,9.51085341 1.03576627,9.51085341 L1.03576627,9.51085341 C0.965147654,9.20323622 1.15727296,8.89661552 1.46489016,8.82599691 C1.65962825,8.78129156 1.86357392,8.84153787 2.00276038,8.98488578 Z" id="Rectangle-22"></path>
                </g>
            </g>
            <g id="Group-6" transform="translate(19.500000, 0.000000)" fill="#FCD210">
                <rect id="Rectangle-28" x="0" y="0" width="3" height="7" rx="1.5"></rect>
                <rect id="Rectangle-28-Copy" x="0" y="39" width="3" height="7" rx="1.5"></rect>
            </g>
            <g id="Group-6-Copy" transform="translate(21.427670, 23.244657) rotate(60.000000) translate(-21.427670, -23.244657) translate(19.927670, 0.244657)" fill="#FCD210">
                <rect id="Rectangle-28" x="0" y="0" width="3" height="7" rx="1.5"></rect>
                <rect id="Rectangle-28-Copy" x="0" y="39" width="3" height="7" rx="1.5"></rect>
            </g>
            <g id="Group-6-Copy-3" transform="translate(21.281223, 22.598210) rotate(120.000000) translate(-21.281223, -22.598210) translate(19.781223, -0.901790)" fill="#FCD210">
                <rect id="Rectangle-28" x="0" y="-7.27595761e-12" width="3" height="7" rx="1.5"></rect>
                <rect id="Rectangle-28-Copy" x="0" y="40" width="3" height="7" rx="1.5"></rect>
            </g>
        </g>
    </g>
</svg>