<?xml version="1.0" encoding="UTF-8"?>
<svg width="32px" height="32px" viewBox="0 0 32 32" version="1.1" xmlns="http://www.w3.org/2000/svg" xmlns:xlink="http://www.w3.org/1999/xlink">
    <!-- Generator: Sketch 51.1 (57501) - http://www.bohemiancoding.com/sketch -->
    <title>h5/Graphics / Custom Label / location_lb_normal</title>
    <desc>Created with Sketch.</desc>
    <defs></defs>
    <g id="Graphics-/-Custom-Label-/-location_lb_normal" stroke="none" stroke-width="1" fill="none" fill-rule="evenodd">
        <g id="Icons-/-Me-/-Collection--Copy-2" transform="translate(3.000000, 1.000000)">
            <path d="M7.94444444,12.1428571 C7.94444444,14.8998016 10.1888889,17.1428571 12.9444444,17.1428571 C15.7,17.1428571 17.9444444,14.8998016 17.9444444,12.1428571 C17.9444444,9.3859127 15.7,7.14285714 12.9444444,7.14285714 C10.1888889,7.14285714 7.94444444,9.3859127 7.94444444,12.1428571 Z" id="address" stroke="#777777" stroke-width="2"></path>
            <path d="M3.80217336,3.67693542 C8.87466569,-1.22564514 17.1253343,-1.22564514 22.1978266,3.67693542 C27.2673911,8.57951597 27.2673911,16.5575317 22.1978266,21.4601123 L13.5137426,29.7509081 C13.3424636,29.9179129 13.2239802,30 13,30 C12.7760198,30 12.5505757,29.9179129 12.3792968,29.7509081 L3.80217336,21.4601123 C-1.26739112,16.5575317 -1.26739112,8.57951597 3.80217336,3.67693542 Z M5.20930291,5.07332381 C0.954080836,9.22031353 0.868477732,15.5901932 5.32308979,19.8557683 L12.3412848,26.7799328 C12.4917871,26.9252382 12.8031892,27.3403998 13,27.3403998 C13.1968108,27.3403998 13.4670269,26.9815162 13.6175292,26.8362108 L20.4205513,20.0123922 C24.8751633,15.7468171 25.3344187,9.50264768 20.8798066,5.23707257 C16.4226219,0.971497455 9.46452498,0.926334099 5.20930291,5.07332381 Z" id="Combined-Shape" fill="#777777"></path>
        </g>
    </g>
</svg>