<?xml version="1.0" encoding="utf-8"?>
<!-- Generator: Adobe Illustrator 22.1.0, SVG Export Plug-In . SVG Version: 6.00 Build 0)  -->
<svg version="1.1" id="图层_1" xmlns="http://www.w3.org/2000/svg" xmlns:xlink="http://www.w3.org/1999/xlink" x="0px" y="0px"
	 viewBox="0 0 48 48" style="enable-background:new 0 0 48 48;" xml:space="preserve">
<style type="text/css">
	.st0{fill:#444444;}
</style>
<title>Graphics / Custom Label / service_ic_compersate</title>
<desc>Created with Sketch.</desc>
<g id="Graphics-_x2F_-Custom-Label-_x2F_-service_x5F_ic_x5F_compersate">
	<path class="st0" d="M24,47.4C11.1,47.4,0.6,36.9,0.6,24C0.6,11.1,11.1,0.6,24,0.6c12.9,0,23.4,10.5,23.4,23.4
		C47.4,36.9,36.9,47.4,24,47.4z M24,1.8C11.8,1.8,1.8,11.8,1.8,24s10,22.2,22.2,22.2s22.2-10,22.2-22.2S36.2,1.8,24,1.8z"/>
	<path id="Shape" d="M14.8,22.5h18.5v1.3H14.8V22.5z M14.8,28h18.5v1.3H14.8V28z M23.1,24.4h1.3v11.1h-1.3V24.4z M23.5,24.8
		l-8.1-11.6l1-0.7l8.1,11.6L23.5,24.8z M24.5,24.8l-1-0.7l8-11.6l1,0.7L24.5,24.8z"/>
</g>
</svg>
