<?xml version="1.0" encoding="utf-8"?>
<!-- Generator: Adobe Illustrator 22.1.0, SVG Export Plug-In . SVG Version: 6.00 Build 0)  -->
<svg version="1.1" id="图层_1" xmlns="http://www.w3.org/2000/svg" xmlns:xlink="http://www.w3.org/1999/xlink" x="0px" y="0px"
	 viewBox="0 0 48 48" style="enable-background:new 0 0 48 48;" xml:space="preserve">
<style type="text/css">
	.st0{fill:#444444;}
</style>
<title>Graphics / Custom Label / service_ic_return</title>
<desc>Created with Sketch.</desc>
<g id="Graphics-_x2F_-Custom-Label-_x2F_-service_x5F_ic_x5F_return">
	<g id="Group-11-Copy" transform="translate(0.600000, 0.600000)">
		<path class="st0" d="M23.4,46.8C10.5,46.8,0,36.3,0,23.4C0,10.5,10.5,0,23.4,0c12.9,0,23.4,10.5,23.4,23.4
			C46.8,36.3,36.3,46.8,23.4,46.8z M23.4,1.2c-12.2,0-22.2,10-22.2,22.2s10,22.2,22.2,22.2s22.2-10,22.2-22.2S35.6,1.2,23.4,1.2z"/>
		<path id="Shape" class="st0" d="M12.8,22.2l5.2-5.8c0.2-0.2,0.2-0.6,0-0.8c-0.2-0.2-0.6-0.2-0.8,0l-6.1,6.7
			c-0.1,0.1-0.1,0.1-0.1,0.2c-0.1,0.1-0.1,0.3,0,0.4c0.1,0.1,0.2,0.2,0.3,0.3c0.1,0,0.1,0,0.2,0h23.4c0.3,0,0.5-0.2,0.5-0.5
			c0-0.3-0.2-0.6-0.5-0.6H12.8z M34.9,26.1H11.5c-0.3,0-0.5,0.2-0.5,0.5c0,0.3,0.2,0.5,0.5,0.5h22.1l-5.2,5.8
			c-0.2,0.2-0.2,0.6,0,0.8c0.1,0.1,0.2,0.2,0.4,0.2c0.1,0,0.3-0.1,0.4-0.2l6.1-6.7c0.1-0.1,0.1-0.1,0.1-0.2c0.1-0.1,0.1-0.3,0-0.4
			c-0.1-0.1-0.2-0.2-0.3-0.3C35.1,26.1,35,26.1,34.9,26.1z"/>
	</g>
</g>
</svg>
