<?xml version="1.0" encoding="utf-8"?>
<!-- Generator: Adobe Illustrator 22.1.0, SVG Export Plug-In . SVG Version: 6.00 Build 0)  -->
<svg version="1.1" id="图层_1" xmlns="http://www.w3.org/2000/svg" xmlns:xlink="http://www.w3.org/1999/xlink" x="0px" y="0px"
	 viewBox="0 0 48 48" style="enable-background:new 0 0 48 48;" xml:space="preserve">
<style type="text/css">
	.st0{fill:#444444;}
</style>
<title>Graphics / Custom Label / service_ic_complain</title>
<desc>Created with Sketch.</desc>
<g id="Graphics-_x2F_-Custom-Label-_x2F_-service_x5F_ic_x5F_complain">
	<g id="Group-11-Copy" transform="translate(0.600000, 0.600000)">
		<path class="st0" d="M23.4,46.8C10.5,46.8,0,36.3,0,23.4C0,10.5,10.5,0,23.4,0c12.9,0,23.4,10.5,23.4,23.4
			C46.8,36.3,36.3,46.8,23.4,46.8z M23.4,1.2c-12.2,0-22.2,10-22.2,22.2s10,22.2,22.2,22.2s22.2-10,22.2-22.2S35.6,1.2,23.4,1.2z"/>
		<path id="Shape" class="st0" d="M17.5,12.6c0.6,0,1.1,0.3,1.6,0.7c0.3,0.4,0.7,0.7,1,1.1c0.8,0.9,0.7,2.2-0.2,3l-0.3,0.3
			c-0.4,0.4-0.8,0.7-1.2,1c-0.5,0.4-1.1,1.1-0.9,2.3c0.2,1,0.6,1.9,1.2,2.9c1.2,1.8,2.6,3.2,4.2,4.1c0.5,0.3,1.1,0.5,1.6,0.7
			c0.3,0.1,0.5,0.1,0.8,0.1c0.4,0,1-0.1,1.6-0.7c0.4-0.4,0.9-0.8,1.4-1.2l0.1-0.1c0.5-0.4,1-0.6,1.5-0.6c0.6,0,1.2,0.3,1.6,0.8
			c0.4,0.4,0.7,0.8,1,1.1c0.8,0.9,0.7,2.1-0.1,2.9c0,0-0.1,0.1-0.2,0.2c-0.7,0.8-1.6,1.5-2.7,2c-0.3,0.1-0.7,0.2-1.1,0.2
			c-0.5,0-1-0.1-1.7-0.3c-2.2-0.6-4.2-1.8-6.5-3.8c-2.8-2.5-4.8-5.2-6.1-8.3c-0.8-1.8-1-3.1-0.9-4.5c0.1-0.9,0.4-1.6,1.1-2.1
			c0.4-0.3,0.7-0.6,1-0.9c0.2-0.2,0.4-0.4,0.7-0.6C16.4,12.8,17,12.6,17.5,12.6L17.5,12.6z M17.5,11.4c-0.8,0-1.6,0.3-2.3,0.9
			c-0.5,0.5-1.1,1-1.6,1.4c-0.9,0.8-1.4,1.8-1.5,3c-0.2,1.8,0.3,3.5,1,5.1c1.5,3.4,3.7,6.2,6.5,8.7c2,1.8,4.3,3.3,7,4.1
			c0.7,0.2,1.3,0.3,2,0.3c0.5,0,1-0.1,1.6-0.3c2.1-1,3.1-2.3,3.2-2.4c1.4-1.3,1.5-3.2,0.2-4.7c-0.3-0.4-0.7-0.8-1-1.2
			c-0.7-0.8-1.6-1.2-2.5-1.2c-0.8,0-1.6,0.3-2.3,0.9c-0.5,0.5-1.1,0.9-1.6,1.4c-0.2,0.2-0.5,0.3-0.7,0.3c-0.1,0-0.2,0-0.4-0.1
			c-0.5-0.2-0.9-0.3-1.4-0.6c-1.6-0.9-2.8-2.2-3.8-3.7c-0.5-0.8-0.9-1.6-1-2.5c-0.1-0.5,0-0.8,0.4-1.1c0.6-0.4,1.1-0.9,1.6-1.4
			c1.4-1.3,1.5-3.3,0.3-4.8c-0.4-0.4-0.7-0.8-1.1-1.2C19.2,11.8,18.4,11.4,17.5,11.4L17.5,11.4z"/>
	</g>
</g>
</svg>
