<?xml version="1.0" encoding="utf-8"?>
<!-- Generator: Adobe Illustrator 22.1.0, SVG Export Plug-In . SVG Version: 6.00 Build 0)  -->
<svg version="1.1" id="图层_1" xmlns="http://www.w3.org/2000/svg" xmlns:xlink="http://www.w3.org/1999/xlink" x="0px" y="0px"
	 viewBox="0 0 48 48" style="enable-background:new 0 0 48 48;" xml:space="preserve">
<style type="text/css">
	.st0{fill:#444444;}
</style>
<title>Graphics / Custom Label / service_ic_after</title>
<desc>Created with Sketch.</desc>
<g id="Graphics-_x2F_-Custom-Label-_x2F_-service_x5F_ic_x5F_after">
	<g id="Group-10-Copy-2" transform="translate(0.600000, 0.600000)">
		<g id="Group-11-Copy">
			<path class="st0" d="M23.4,46.8C10.5,46.8,0,36.3,0,23.4C0,10.5,10.5,0,23.4,0c12.9,0,23.4,10.5,23.4,23.4
				C46.8,36.3,36.3,46.8,23.4,46.8z M23.4,1.2c-12.2,0-22.2,10-22.2,22.2s10,22.2,22.2,22.2s22.2-10,22.2-22.2S35.6,1.2,23.4,1.2z"
				/>
			<g id="A002-保障-货品赔付" transform="translate(12.000000, 10.200000)">
				<g id="Group" transform="translate(0.417190, 0.025781)">
					<path id="Shape" class="st0" d="M11,0L11,0l0.6,0.4c2.9,2.1,6.1,3.3,9.4,3.4h1v8.9c0,6.5-4.4,12.1-10.7,13.6l-0.2,0l-0.3,0
						C4.4,24.8,0,19.3,0,12.7V3.8h1.1c3.3-0.1,6.5-1.3,9.4-3.4L11,0z M11.1,1.2l-0.5,0.4C8,3.5,5.1,4.5,2.2,4.7h-1v8.1
						c0,6,4,11,9.7,12.4l0.2,0l0.2,0C17,23.8,21,18.7,21,12.8V4.7h-0.9c-3-0.1-5.8-1.2-8.5-3.1L11.1,1.2L11.1,1.2z"/>
				</g>
			</g>
			<path id="Path" class="st0" d="M30.8,18.8l-8.3,7.6L19,21.9c-0.2-0.3-0.6-0.3-0.8-0.1c-0.3,0.2-0.3,0.6-0.1,0.8l3.9,5
				c0.1,0.1,0.2,0.2,0.4,0.2c0,0,0,0,0,0c0.1,0,0.3-0.1,0.4-0.2l8.7-8c0.2-0.2,0.2-0.6,0-0.8C31.4,18.6,31,18.5,30.8,18.8"/>
		</g>
	</g>
</g>
</svg>
