<?xml version="1.0" encoding="utf-8"?>
<!-- Generator: Adobe Illustrator 22.1.0, SVG Export Plug-In . SVG Version: 6.00 Build 0)  -->
<svg version="1.1" id="图层_1" xmlns="http://www.w3.org/2000/svg" xmlns:xlink="http://www.w3.org/1999/xlink" x="0px" y="0px"
	 viewBox="0 0 48 48" style="enable-background:new 0 0 48 48;" xml:space="preserve">
<style type="text/css">
	.st0{fill:#444444;}
</style>
<title>Graphics / Custom Label / service_ic_save</title>
<desc>Created with Sketch.</desc>
<g id="Graphics-_x2F_-Custom-Label-_x2F_-service_x5F_ic_x5F_save">
	<g id="Group-11" transform="translate(0.600000, 0.600000)">
		<path class="st0" d="M23.4,46.8C10.5,46.8,0,36.3,0,23.4C0,10.5,10.5,0,23.4,0c12.9,0,23.4,10.5,23.4,23.4
			C46.8,36.3,36.3,46.8,23.4,46.8z M23.4,1.2c-12.2,0-22.2,10-22.2,22.2s10,22.2,22.2,22.2s22.2-10,22.2-22.2S35.6,1.2,23.4,1.2z"/>
	</g>
	<g id="Group-12" transform="translate(10.800000, 11.400000)">
		<path id="Combined-Shape" class="st0" d="M12.6,0.2C12.7,0.1,12.9,0,13,0c0.2,0,0.3,0.1,0.4,0.2l0,0l12.5,11.4l0,0
			C26,11.7,26,11.8,26,12c0,0.3-0.3,0.6-0.6,0.6c-0.2,0-0.3-0.1-0.4-0.2L13,1.2c0,0,0,0,0,0c0,0,0,0,0,0L1,12.4
			c-0.1,0.1-0.3,0.2-0.4,0.2C0.3,12.6,0,12.3,0,12c0-0.2,0.1-0.4,0.2-0.5L12.6,0.2L12.6,0.2z"/>
		<path id="Combined-Shape_1_" class="st0" d="M22.2,14.4V24c0,0.7-0.5,1.2-1.2,1.2H4.2C3.5,25.2,3,24.7,3,24v-9.6
			c0-0.3,0.3-0.6,0.6-0.6s0.6,0.3,0.6,0.6v9c0,0.3,0.3,0.6,0.6,0.6h15.6c0.3,0,0.6-0.3,0.6-0.6v-9c0-0.3,0.3-0.6,0.6-0.6
			S22.2,14.1,22.2,14.4z"/>
		<path id="Shape" class="st0" d="M5.4,20.2h2.4v2.4H5.4V20.2z M5.4,16.3h2.4v2.4H5.4V16.3z M9.3,20.2h2.4v2.4H9.3V20.2z M13.2,20.2
			h2.4v2.4h-2.4V20.2z"/>
	</g>
</g>
</svg>
