<?xml version="1.0" encoding="UTF-8"?>
<svg width="38px" height="38px" viewBox="0 0 38 38" version="1.1" xmlns="http://www.w3.org/2000/svg" xmlns:xlink="http://www.w3.org/1999/xlink">
    <!-- Generator: Sketch 51.2 (57519) - http://www.bohemiancoding.com/sketch -->
    <title>download_ic_join</title>
    <desc>Created with Sketch.</desc>
    <defs></defs>
    <g id="download_ic_join" stroke="none" stroke-width="1" fill="none" fill-rule="evenodd">
        <g id="加入我们" transform="translate(2.000000, 1.000000)" fill="#BFBDBD" fill-rule="nonzero">
            <path d="M6.25725486,1.43460635 C8.44912736,1.43460635 10.2271447,3.17016123 10.2271447,5.31162758 C10.2271447,7.45304566 8.44912736,9.19009589 6.25725486,9.19009589 C4.06523424,9.19009589 2.28874757,7.45299743 2.28874757,5.31162758 C2.28874757,3.17016123 4.06523424,1.43460635 6.25725486,1.43460635 Z M27.6398739,1.43460635 C25.4463721,1.43460635 23.6698854,3.17016123 23.6698854,5.31162758 C23.6698854,7.45304566 25.4463721,9.19009589 27.6398739,9.19009589 C29.8317958,9.19009589 31.6082825,7.45299743 31.6082825,5.31162758 C31.6082825,3.17016123 29.8317464,1.43460635 27.6398739,1.43460635 Z M23.7173835,23.7366312 L23.7173835,33.9569656 L26.5147822,33.9569656 L27.6321222,26.792954 L28.7510915,33.9569656 L31.7968428,33.9569656 L31.7968429,22.6375108 C33.004686,22.0220111 33.8354576,20.7851267 33.8354576,19.3684644 L33.8354576,13.5777021 C33.8354576,11.553065 32.1401423,9.89536404 30.0677555,9.89536404 L25.4295355,9.89536404 C25.130673,9.89536404 24.839414,9.92985325 24.5589188,9.99569629 C25.1797016,10.9226119 25.5398376,12.0278101 25.5398376,13.2138048 L25.5398376,19.5167439 C25.5398376,21.1309836 24.8624225,22.6434921 23.7173835,23.7366312 Z M17.0435605,0 C19.4301158,0 21.3629215,1.8883686 21.3629215,4.21993558 C21.3629215,6.55000724 19.4301158,8.43982293 17.0435605,8.43982293 C14.658437,8.43982293 12.7241008,6.54995897 12.7241008,4.21993558 C12.7241008,1.8883686 14.6584865,0 17.0435605,0 Z M21.3109304,23.0822528 C22.6368274,22.4158634 23.548721,21.0651405 23.548721,19.5167439 L23.548721,13.2138048 C23.548721,11.0109814 21.7032584,9.20808815 19.4469525,9.20808815 L14.401049,9.20808815 C12.1462736,9.20808815 10.2992311,11.0110296 10.2992311,13.2138048 L10.2992311,19.5167439 C10.2992311,21.0591592 11.2035704,22.4039007 12.5187532,23.0732325 L12.5187532,35.391572 L15.8326069,35.391572 L17.0496336,27.5956602 L18.2681908,35.391572 L21.3109304,35.391572 L21.3109304,23.0822528 Z M10.179696,23.7366312 C9.03460765,22.6434921 8.3571431,21.1309353 8.3571431,19.5167439 L8.3571431,13.2138048 C8.3571431,12.0278101 8.71737786,10.9226119 9.33811135,9.99569629 C9.05761604,9.92985325 8.76645593,9.89536404 8.46749465,9.89536404 L3.82927461,9.89536404 C1.75688787,9.89536404 0.0616712715,11.553065 0.0616712715,13.5777021 L0.0616712715,19.3684644 C0.0616712715,20.7850785 0.892492296,22.0220111 2.10033538,22.6375108 L2.10033538,33.9569656 L5.14445735,33.9569656 L6.26342668,26.792954 L7.38239602,33.9569656 L10.1797947,33.9569656 L10.1797947,23.7366312 L10.179696,23.7366312 Z" id="Shape"></path>
        </g>
    </g>
</svg>