<?xml version="1.0" encoding="UTF-8"?>
<svg width="38px" height="38px" viewBox="0 0 38 38" version="1.1" xmlns="http://www.w3.org/2000/svg" xmlns:xlink="http://www.w3.org/1999/xlink">
    <!-- Generator: Sketch 49 (51002) - http://www.bohemiancoding.com/sketch -->
    <title>download_ic_cooperation</title>
    <desc>Created with Sketch.</desc>
    <defs></defs>
    <g id="download_ic_cooperation" stroke="none" stroke-width="1">
        <g transform="translate(3.000000, 1.000000)" fill="#BFBDBD" fill-rule="nonzero">
            <path d="M2.47145299e-16,1.50000001 C2.47145299e-16,0.671572881 0.664435391,1.52221985e-16 1.48405798,0 C2.30368057,-1.52221985e-16 2.96811597,0.671572881 2.96811597,1.50000001 L2.96811597,35.99925 L0,35.99925 L2.47145299e-16,1.50000001 Z M5.9362319,4.75350001 C5.9362319,4.75350001 10.9872232,-0.396 18.8416,4.07400001 C26.6959768,8.54400002 31.9970319,3.537 31.9970319,3.537 L31.9970319,24.42975 C31.9970319,24.42975 26.7916986,29.51175 18.6316058,24.86325 C10.470771,20.21475 5.93548988,25.59825 5.93548988,25.59825 L5.93548988,4.75425 L5.9362319,4.75350001 Z"></path>
        </g>
    </g>
</svg>