<?xml version="1.0" encoding="UTF-8"?>
<svg width="38px" height="38px" viewBox="0 0 38 38" version="1.1" xmlns="http://www.w3.org/2000/svg" xmlns:xlink="http://www.w3.org/1999/xlink">
    <!-- Generator: Sketch 49 (51002) - http://www.bohemiancoding.com/sketch -->
    <title>download_ic_home</title>
    <desc>Created with Sketch.</desc>
    <defs></defs>
    <g id="download_ic_home" stroke="none" stroke-width="1">
        <g transform="translate(1.000000, 1.000000)" fill="#BFBDBD" fill-rule="nonzero">
            <path d="M17.4314858,0.181176907 L0.445097288,17.6959629 C0.2207437,17.8961091 0.0412248884,18.2016937 0.0412248884,18.5058937 C0.0412248884,18.8791168 -7.10542736e-15,34.6153846 -7.10542736e-15,34.6153846 C-7.10542736e-15,34.6153846 -7.10542736e-15,36 1.49171293,36 L12.889638,36 C13.3614302,36 13.7438933,35.6175369 13.7438933,35.1457447 L13.7438933,25.6893054 C13.7438933,23.3389827 15.6492063,21.4336697 17.999529,21.4336697 L17.999529,21.4336697 C20.3498517,21.4336697 22.2551647,23.3389827 22.2551647,25.6893054 L22.2551647,35.1457447 C22.2551647,35.6175369 22.6376278,36 23.10942,36 L34.309397,36 C35.8011099,36 35.8011099,34.6153846 35.8011099,34.6153846 C35.8011099,34.6153846 36,18.7303398 36,18.5058937 C36,18.2016245 35.9781464,17.8960398 35.7537928,17.6959629 L18.3696241,0.181176907 C18.2355937,0.0608538353 18.0680743,0 17.900555,0 C17.7344527,0 17.5669334,0.0608538353 17.4314858,0.181176907 Z"></path>
        </g>
    </g>
</svg>