<?xml version="1.0" encoding="UTF-8"?>
<svg width="70px" height="40px" viewBox="0 0 70 40" version="1.1" xmlns="http://www.w3.org/2000/svg" xmlns:xlink="http://www.w3.org/1999/xlink">
    <!-- Generator: Sketch 50.2 (55047) - http://www.bohemiancoding.com/sketch -->
    <title>h5/Graphics / Custom Icons / Video / video_btn_voice</title>
    <desc>Created with Sketch.</desc>
    <defs></defs>
    <g id="Graphics-/-Custom-Icons-/-Video-/-video_btn_voice" stroke="none" stroke-width="1" fill="none" fill-rule="evenodd">
        <path d="M70,0 L70,40 L4,40 C1.790861,40 2.705415e-16,38.209139 0,36 L0,4 C-2.705415e-16,1.790861 1.790861,4.05812251e-16 4,0 L70,0 Z" id="Combined-Shape" fill-opacity="0.5" fill="#000000"></path>
        <g id="video_ic_voice" transform="translate(22.000000, 7.000000)" fill="#FFFFFF">
            <path d="M13.1918536,0.662504238 C14.7438364,-0.662511509 16,0.0946403462 16,2.17680795 L16,23.8930622 C16,25.8805858 14.8408353,26.6377377 13.1918536,25.4073659 L6.20793111,20.4509376 L3.2979634,20.4509376 C1.45498385,20.4509376 0,19.2127247 0,17.414489 L0,8.75002509 C0,6.95178943 1.55198278,5.5775258 3.2979634,5.5775258 L6.5959268,5.5775258 L13.1918536,0.662504238 Z M11.8938902,4.45635815 L6.9469451,7.85906538 L4.47347255,7.85906538 C3.16398708,7.85906538 2,8.81047867 2,10.055411 L2,16.0538861 C2,17.2988185 3.09123789,18.1560428 4.47347255,18.1560428 L6.65594833,18.1560428 L11.8938902,21.5874162 C14.0261301,23.0559856 14,21.91503 14,20.5390521 L14,5.50472226 C14,4.06322161 13.8481918,2.91620598 11.8938902,4.45635815 Z" id="Combined-Shape" fill-rule="nonzero"></path>
            <path d="M22.2811342,22.4290764 C22.2810225,22.4281391 22.280911,22.4272017 22.2807998,22.4262643 C25.0680177,20.4307323 26.8843293,17.1655725 26.8843293,13.4761905 C26.8843293,9.81419747 25.0948853,6.57015152 22.3427138,4.57076916 C22.0669124,4.39273374 21.8843293,4.08268893 21.8843293,3.72999954 C21.8843293,3.17771479 22.3320446,2.72999954 22.8843293,2.72999954 C23.133953,2.72999954 23.3622143,2.82146294 23.5374286,2.97270524 C23.5384549,2.97138489 23.5394816,2.97006499 23.5405089,2.96874552 C26.7797333,5.33302736 28.8843293,9.15883155 28.8843293,13.4761905 C28.8843293,17.8033547 26.7701629,21.6367288 23.5184213,23.9997216 C23.4824809,24.0295643 23.4444167,24.0569377 23.4044889,24.0815815 C23.3981507,24.0860842 23.3918082,24.0905812 23.3854615,24.0950727 C23.3847104,24.0948333 23.3839598,24.0945935 23.3832097,24.0943533 C23.2354002,24.1805908 23.0634706,24.2299995 22.8800011,24.2299995 C22.3277163,24.2299995 21.8800011,23.7822843 21.8800011,23.2299995 C21.8800011,22.9023275 22.0376005,22.6114648 22.2811342,22.4290764 Z" id="Combined-Shape"></path>
            <path d="M20.2290773,18.9110698 C20.2290135,18.910503 20.2289499,18.9099362 20.2288863,18.9093694 C21.8205981,17.7027686 22.8578491,15.728486 22.8578491,13.4976968 C22.8578491,11.2834685 21.8359415,9.32195236 20.2642439,8.11302349 C20.1067405,8.00537417 20.0024718,7.81790521 20.0024718,7.60465116 C20.0024718,7.27071155 20.258151,7 20.5735472,7 C20.7161012,7 20.8464556,7.05530345 20.9465162,7.14675228 C20.9471023,7.14595393 20.9476886,7.14515585 20.9482753,7.14435803 C22.7981169,8.5739238 24,10.8872007 24,13.4976968 C24,16.1141217 22.7926514,18.4319758 20.9356616,19.8607621 C20.9151368,19.8788066 20.8933992,19.895358 20.8705974,19.910259 C20.8669779,19.9129815 20.8633559,19.9157006 20.8597315,19.9184163 C20.8593026,19.9182716 20.8588739,19.9181266 20.8584455,19.9179813 C20.7740352,19.9701249 20.6758504,20 20.5710755,20 C20.2556792,20 20,19.7292885 20,19.3953488 C20,19.1972216 20.0900011,19.0213511 20.2290773,18.9110698 Z" id="Combined-Shape"></path>
        </g>
    </g>
</svg>