<?xml version="1.0" encoding="UTF-8"?>
<svg width="52px" height="52px" viewBox="0 0 52 52" version="1.1" xmlns="http://www.w3.org/2000/svg" xmlns:xlink="http://www.w3.org/1999/xlink">
    <!-- Generator: Sketch 50.2 (55047) - http://www.bohemiancoding.com/sketch -->
    <title>h5/Graphics / Custom Icons / Customer / list_ic_talent_52</title>
    <desc>Created with Sketch.</desc>
    <defs>
        <linearGradient x1="20.5323712%" y1="11.4023282%" x2="84.064834%" y2="82.2297653%" id="linearGradient-1">
            <stop stop-color="#F43227" offset="0%"></stop>
            <stop stop-color="#D60A07" offset="100%"></stop>
        </linearGradient>
    </defs>
    <g id="Graphics-/-Custom-Icons-/-Customer-/-list_ic_talent_52" stroke="none" stroke-width="1" fill="none" fill-rule="evenodd">
        <g id="list_ic_v" transform="translate(1.000000, 1.000000)">
            <path d="M-0.735294118,24.9999651 C-0.735294118,10.7867834 10.7867772,-0.735294118 25,-0.735294118 C39.2131768,-0.735294118 50.7352941,10.7868071 50.7352941,24.9999651 C50.7352941,39.2131817 39.2131879,50.7352941 25,50.7352941 C10.7867661,50.7352941 -0.735294118,39.2132055 -0.735294118,24.9999651 Z" id="Page-1" stroke="#FFFFFF" stroke-width="1.47058824" fill="url(#linearGradient-1)"></path>
            <path d="M15.1098982,15.5360069 L12.7941176,15.5360069 C12.631681,15.5360069 12.5,15.404326 12.5,15.2418893 L12.5,12.7941176 C12.5,12.631681 12.631681,12.5 12.7941176,12.5 L19.4845077,12.5 C19.6469444,12.5 19.7786254,12.631681 19.7786254,12.7941176 L19.7786254,28.1226342 C19.7786254,28.2850709 19.9103063,28.4167518 20.072743,28.4167518 C20.1568163,28.4167518 20.2368706,28.380773 20.2926878,28.3179019 L34.2481168,12.5988499 C34.3039339,12.5359789 34.3839882,12.5 34.4680615,12.5 L40.8716751,12.5 C41.0341118,12.5 41.1657927,12.631681 41.1657927,12.7941176 C41.1657927,12.8698921 41.1365477,12.9427429 41.0841537,12.9974844 L15.910612,39.2989211 C15.7982957,39.4162698 15.6121154,39.4203493 15.4947667,39.3080329 C15.436799,39.2525511 15.4040158,39.1757945 15.4040158,39.0955543 L15.4040158,15.8301246 C15.4040158,15.6676879 15.2723348,15.5360069 15.1098982,15.5360069 Z" id="Shape" fill="#FFFFFF" fill-rule="nonzero"></path>
        </g>
    </g>
</svg>