<?xml version="1.0" encoding="UTF-8"?>
<svg width="122px" height="122px" viewBox="0 0 122 122" version="1.1" xmlns="http://www.w3.org/2000/svg" xmlns:xlink="http://www.w3.org/1999/xlink">
    <!-- Generator: Sketch 49 (51002) - http://www.bohemiancoding.com/sketch -->
    <title>me_ic_error_slice</title>
    <desc>Created with Sketch.</desc>
    <defs>
        <circle id="path-1" cx="60" cy="60" r="60"></circle>
    </defs>
    <g id="动态单页" stroke="none" stroke-width="1" fill="none" fill-rule="evenodd">
        <g id="Artboard" transform="translate(-314.000000, -469.000000)">
            <g id="me_ic_error" transform="translate(315.000000, 470.000000)">
                <mask id="mask-2" fill="white">
                    <use xlink:href="#path-1"></use>
                </mask>
                <use id="Mask" fill="#FFFFFF" xlink:href="#path-1"></use>
                <path d="M60,120 C26.8633334,120 0,93.1366666 0,60 C0,26.8633334 26.8633334,0 60,0 C93.1366666,0 120,26.8633334 120,60 C120,93.1366666 93.1366666,120 60,120 Z M78.9822223,62.4833333 C81.25,58.9155555 82.87,54.3744444 82.87,49.8344445 C82.87,37.1855556 72.8255556,27.1311111 60.1888889,27.1311111 C47.5533333,27.1311111 37.5077777,37.1855556 37.5077777,49.8344445 C37.5077777,54.3744444 38.8044444,58.9155555 41.3966667,62.4833333 C33.2955555,68.3211111 27.7866667,78.0522223 27.7866667,88.7555556 C27.7866667,90.7 29.0833334,91.9988889 31.0277777,91.9988889 C32.9711111,91.9988889 34.2666667,90.7 34.2666667,88.7555556 C34.2666667,79.6733333 38.8044444,71.8888889 45.6077777,67.3477778 C49.4966667,70.5922222 54.6811111,72.5377778 60.1888889,72.5377778 C65.6977778,72.5377778 70.8811111,70.5922222 74.77,67.3477778 C81.5744445,71.8888889 86.11,79.9977778 86.11,88.7555556 C86.11,90.7 87.4066666,91.9988889 89.3511111,91.9988889 C91.2944445,91.9988889 92.5911111,90.7 92.5911111,88.7555556 C92.5911111,78.0522223 87.0833333,68.3211111 78.9822223,62.4833333 Z M60.1888889,66.0511111 C51.1166667,66.0511111 43.9877777,58.9155555 43.9877777,49.8344445 C43.9877777,40.7533334 51.1166667,33.6177778 60.1888889,33.6177778 C69.2611111,33.6177778 76.39,40.7533334 76.39,49.8344445 C76.39,58.9155555 69.2611111,66.0511111 60.1888889,66.0511111 Z" id="Shape" fill="#D4D4D4" fill-rule="nonzero" mask="url(#mask-2)"></path>
            </g>
        </g>
    </g>
</svg>