<svg xmlns="http://www.w3.org/2000/svg" width="31" height="31" viewBox="0 0 31 31">
  <path fill="#0091FF" d="M245.945355,80.0233333 L234.711306,80.0233333 C234.106367,80.0233333 233.61974,80.5103662 233.61974,81.1157256 C233.61974,81.7210849 234.106404,82.2081178 234.711306,82.2081178 L243.343804,82.2081178 L238.158841,87.397009 C235.843795,85.4261499 232.937489,84.3519849 229.862915,84.3519849 C226.43809,84.3519849 223.217997,85.6856057 220.793783,88.1116563 C218.369606,90.5376694 217.036958,93.7602396 217.036958,97.1876591 C217.036958,100.615079 218.369569,103.837611 220.793783,106.263662 C223.217959,108.689675 226.43809,110.023333 229.862915,110.023333 C233.28774,110.023333 236.507833,108.689712 238.932047,106.263662 C241.356224,103.837649 242.688872,100.615079 242.688872,97.1876591 C242.688872,94.1380595 241.633659,91.2523168 239.696147,88.9446302 L244.853827,83.7830423 L244.853827,92.3583231 C244.853827,92.96372 245.340491,93.4507153 245.945392,93.4507153 C246.550293,93.4507153 247.036958,92.9636825 247.036958,92.3583231 L247.036958,81.1157631 C247.036958,80.5103662 246.545759,80.0233708 245.945392,80.0233708 L245.945355,80.0233333 Z M229.862878,107.838511 C223.9957,107.838511 219.220088,103.059281 219.220088,97.1876591 C219.220088,91.3160368 223.9957,86.5368068 229.862878,86.5368068 C232.755542,86.5368068 235.379879,87.6974571 237.299215,89.5772929 C237.33107,89.6182477 237.362887,89.6592401 237.403811,89.6956194 C237.4402,89.7320362 237.481124,89.763915 237.517551,89.7957563 C239.364146,91.7120089 240.505704,94.3201061 240.505704,97.1876216 C240.505704,103.059244 235.730092,107.838474 229.862915,107.838474 L229.862878,107.838511 Z" transform="translate(-217 -80)"/>
</svg>
