<?xml version="1.0" encoding="UTF-8"?>
<svg width="38px" height="38px" viewBox="0 0 38 38" version="1.1" xmlns="http://www.w3.org/2000/svg" xmlns:xlink="http://www.w3.org/1999/xlink">
    <!-- Generator: Sketch 49 (51002) - http://www.bohemiancoding.com/sketch -->
    <title>download_ic_products</title>
    <desc>Created with Sketch.</desc>
    <defs></defs>
    <g id="download_ic_products" stroke="none" stroke-width="1" fill="none" fill-rule="evenodd">
        <g transform="translate(1.000000, 1.000000)" fill="#BFBDBD" fill-rule="nonzero">
            <path d="M35.5250262,11.097801 L26.9905759,19.6322513 C26.3874346,20.2353927 25.4525654,20.2353927 24.8494241,19.6322513 L16.3451309,11.097801 C15.7419895,10.4946597 15.7419895,9.55979058 16.3451309,8.95664921 L24.8795812,0.452356021 C25.4827225,-0.15078534 26.4175916,-0.15078534 27.020733,0.452356021 L35.5250262,8.98680628 C36.1281675,9.55979058 36.1281675,10.5248168 35.5250262,11.097801 Z M13.5706806,35.9773822 L1.5078534,35.9773822 C0.663455497,35.9773822 0,35.3139267 0,34.4695288 L0,22.4067016 C0,21.5623037 0.663455497,20.8988482 1.5078534,20.8988482 L13.5706806,20.8988482 C14.4150785,20.8988482 15.078534,21.5623037 15.078534,22.4067016 L15.078534,34.4695288 C15.078534,35.3139267 14.4150785,35.9773822 13.5706806,35.9773822 Z M13.5706806,17.8831414 L1.5078534,17.8831414 C0.663455497,17.8831414 0,17.2196859 0,16.375288 L0,4.31246073 C0,3.46806283 0.663455497,2.80460733 1.5078534,2.80460733 L13.5706806,2.80460733 C14.4150785,2.80460733 15.078534,3.46806283 15.078534,4.31246073 L15.078534,16.375288 C15.078534,17.2196859 14.4150785,17.8831414 13.5706806,17.8831414 Z M19.6020942,20.8988482 L31.6649215,20.8988482 C32.5093194,20.8988482 33.1727749,21.5623037 33.1727749,22.4067016 L33.1727749,34.4695288 C33.1727749,35.3139267 32.5093194,35.9773822 31.6649215,35.9773822 L19.6020942,35.9773822 C18.7576963,35.9773822 18.0942408,35.3139267 18.0942408,34.4695288 L18.0942408,22.4067016 C18.0942408,21.5623037 18.7576963,20.8988482 19.6020942,20.8988482 Z"></path>
        </g>
    </g>
</svg>