<?xml version="1.0" encoding="UTF-8"?>
<svg width="76px" height="38px" viewBox="0 0 76 38" version="1.1" xmlns="http://www.w3.org/2000/svg" xmlns:xlink="http://www.w3.org/1999/xlink">
    <!-- Generator: Sketch 50.2 (55047) - http://www.bohemiancoding.com/sketch -->
    <title>h5/Graphics / Custom Icons / Download / download_ic_logo</title>
    <desc>Created with Sketch.</desc>
    <defs>
        <polygon id="path-1" points="0 0.33825 17.2636383 0.33825 17.2636383 14.09085 0 14.09085"></polygon>
    </defs>
    <g id="Graphics-/-Custom-Icons-/-Download-/-download_ic_logo" stroke="none" stroke-width="1" fill="none" fill-rule="evenodd">
        <g id="Group" transform="translate(1.000000, 1.000000)">
            <path d="M44.1007725,1 L44.1007725,20.0910082 L56.2573222,20.0932311 L56.2573222,23.703962 L43.5302107,23.703962 L43.5302107,27.2946868 L56.2573222,27.2946868 L56.2573222,31.5152334 L42,31.5152334 L42,35 L74,35 L74,31.5152334 L59.741931,31.5152334 L59.741931,27.2946868 L72.4690425,27.2946868 L72.4690425,23.703962 L59.741931,23.703962 L59.741931,20.0932311 L71.8969871,20.0910082 L71.885785,1 L44.1007725,1 Z M59.741931,8.91648869 L68.4146188,8.91648869 L68.4146188,4.59146581 L59.741931,4.59146581 L59.741931,8.91648869 Z M47.5853812,8.91648869 L56.258069,8.91648869 L56.258069,4.59146581 L47.5853812,4.59146581 L47.5853812,8.91648869 Z M59.741931,16.5010243 L68.4146188,16.5010243 L68.4146188,12.5079545 L59.741931,12.5079545 L59.741931,16.5010243 Z M47.5853812,16.5010243 L56.258069,16.5010243 L56.258069,12.5079545 L47.5853812,12.5079545 L47.5853812,16.5010243 Z" id="Fill-1" fill="#0848D1"></path>
            <g id="Group-13">
                <path d="M6.06505319,10.5762 C7.68473404,12.7782 9.78398936,16.6707 9.78398936,16.6707 L12.423883,14.78745 C10.7736702,11.78445 8.66473404,8.88495 8.66473404,8.88495 L6.06505319,10.5762 Z" id="Fill-2" fill="#0848D1"></path>
                <path d="M21.1898936,18.079875 C22.8095745,20.281875 25.2841489,24.961125 25.2841489,24.961125 L27.9232979,23.077875 C25.8985106,19.288125 23.7895745,16.388625 23.7895745,16.388625 L21.1898936,18.079875 Z" id="Fill-4" fill="#0848D1"></path>
                <g id="Group-8">
                    <mask id="mask-2" fill="white">
                        <use xlink:href="#path-1"></use>
                    </mask>
                    <g id="Clip-7"></g>
                    <polygon id="Fill-6" fill="#0848D1" mask="url(#mask-2)" points="15.2284255 12.7896 17.2636383 10.53885 10.000766 0.3696 7.83076596 0.3381 -0.00029787234 11.46435 1.87778723 14.09085 8.94182979 4.08285"></polygon>
                </g>
                <path d="M1.89111702,20.760525 L11.3857979,20.760525 L11.6322872,20.761275 C11.6576064,20.762025 7.91409574,27.262275 7.91409574,27.262275 C6.35920213,25.698525 5.19452128,24.604275 5.19452128,24.604275 L2.77207447,26.841525 C6.73154255,30.588525 11.2532447,35.999775 11.2532447,35.999775 L13.6727128,33.587025 C12.7105851,32.365275 11.5228191,31.030275 10.3425,29.772525 L15.349734,20.736525 L15.349734,17.228025 L1.89409574,17.228025 L1.89111702,20.760525 Z" id="Fill-9" fill="#0848D1"></path>
                <polygon id="Fill-11" fill="#0848D1" points="32.3077553 9.71925 21.9544574 9.71925 22.5442447 4.7475 34.1888191 4.7415 34.1888191 1.20675 16.5599894 1.20675 16.5599894 4.77675 19.4739255 4.77675 15.615734 33.44775 16.5093511 36 24.8803085 32.6925 24.1393511 29.75925 18.922117 31.75575 21.4354149 13.251 29.0333936 13.251 27.9230745 35.68875 31.0015851 35.68875 34.721266 35.68875 34.721266 32.1525 31.1579681 32.1525"></polygon>
            </g>
        </g>
    </g>
</svg>