<?xml version="1.0" encoding="UTF-8"?>
<svg width="30px" height="30px" viewBox="0 0 30 30" version="1.1" xmlns="http://www.w3.org/2000/svg" xmlns:xlink="http://www.w3.org/1999/xlink">
    <!-- Generator: Sketch 50.2 (55047) - http://www.bohemiancoding.com/sketch -->
    <title>h5/Graphics / Custom Label / custom_ic_problem</title>
    <desc>Created with Sketch.</desc>
    <defs></defs>
    <g id="Graphics-/-Custom-Label-/-custom_ic_problem" stroke="none" stroke-width="1" fill="none" fill-rule="evenodd">
        <g id="问题" transform="translate(1.000000, 1.000000)" fill="#C33C3A" fill-rule="nonzero">
            <path d="M14,0 C6.23589474,0 0,6.23663157 0,14 C0,21.7633684 6.23589474,28 14,28 C21.7633684,28 28,21.7633684 28,14 C28,6.23663157 21.7633684,0 14,0 Z M14,1.27252631 C21,1.27252631 26.7274737,7 26.7274737,14 C26.7274737,21 21,26.7274737 14,26.7274737 C7,26.7274737 1.27252631,21 1.27252631,14 C1.27252631,7 7,1.27252631 14,1.27252631 Z M14.7633684,20.8725263 C15.0183158,21.1274737 15.1450526,21.3816842 15.1450526,21.6358947 C15.1450526,22.017579 15.0183158,22.2725263 14.7633684,22.4 C14.5091579,22.6542105 14.2549474,22.7816842 14,22.7816842 C13.6183158,22.7816842 13.3633684,22.6542105 13.1091579,22.4 C12.8542106,22.1450526 12.7267369,21.891579 12.7267368,21.6358947 C12.7267368,21.2542105 12.8542105,21 13.1098947,20.8725263 C13.3633684,20.6183158 13.6183158,20.4908421 14,20.4908421 L14.7633684,20.8725263 Z M17.6908421,7.50915791 C18.4542105,8.27252634 18.9633684,9.29084212 18.9633684,10.6908421 C18.9633684,11.7091579 18.7091579,12.4725263 18.0725263,13.2358947 C17.817579,13.6190526 17.1816842,14.1274737 16.2908421,15.0190526 C15.782421,15.5274737 15.4,15.9091579 15.1450526,16.2908421 C14.7633684,16.8 14.6366316,17.4358947 14.6366316,18.0725263 L14.6366316,18.7091579 L13.2366316,18.7091579 L13.2366316,18.0725263 C13.2366316,17.4358947 13.3633684,16.8 13.6183158,16.2908421 C14,15.6542105 14.6358947,14.7633684 15.7816842,13.7450526 C16.2908421,13.2366316 16.6732632,12.8542106 16.8,12.6 C17.3091579,11.9633684 17.5633684,11.3267368 17.5633684,10.691579 C17.5633684,9.67252631 17.3091579,8.90915791 16.6725263,8.4 C16.0358947,7.76336843 15.2725263,7.50915791 14.1267368,7.50915791 C12.8542105,7.50915791 11.9633684,7.89084212 11.3267368,8.78168421 C10.8183158,9.41831579 10.5633684,10.3091579 10.5633684,11.5816842 L9.16336843,11.5816842 C9.16336843,10.0542105 9.54505264,8.78168421 10.4358947,7.76336843 C11.3274737,6.74505264 12.6,6.23589474 14.2542105,6.23589474 C15.6542105,6.23589474 16.8,6.61905264 17.6908421,7.50915791 Z" id="Shape"></path>
        </g>
    </g>
</svg>