<?xml version="1.0" encoding="UTF-8"?>
<svg width="30px" height="30px" viewBox="0 0 30 30" version="1.1" xmlns="http://www.w3.org/2000/svg" xmlns:xlink="http://www.w3.org/1999/xlink">
    <!-- Generator: Sketch 50.2 (55047) - http://www.bohemiancoding.com/sketch -->
    <title>h5/Graphics / Custom Label / custom_ic_service</title>
    <desc>Created with Sketch.</desc>
    <defs></defs>
    <g id="Graphics-/-Custom-Label-/-custom_ic_service" stroke="none" stroke-width="1" fill="none" fill-rule="evenodd">
        <g id="售后" transform="translate(3.000000, 1.000000)" fill="#0848D1" fill-rule="nonzero">
            <path d="M19.9065429,9.56011899 C19.4546481,9.14814653 18.8688971,9.32002671 18.4170023,9.73199916 L10.6317785,16.9248658 L6.62051893,13.1337298 C6.16919692,12.7204814 5.54158234,12.5605382 5.09026032,12.9737866 C4.64196767,13.3890693 4.82542257,13.9432138 5.27371522,14.3584965 L9.83140363,18.5469261 C10.2828723,18.96095 11.0138472,18.96095 11.4653159,18.5469261 L19.7275543,10.954085 C20.1772354,10.5393286 20.356224,9.9748754 19.9065429,9.56011899 Z M12.4568353,26.4938805 C12.3736072,26.4938805 1.69536305,24.5250634 1.69536305,9.59838717 L1.69536305,5.06562342 C1.52227582,5.02128907 2.05845467,5.08895729 2.64752637,5.08895729 C3.65428038,5.08895729 5.34913109,5.02128907 6.97669557,4.65611401 C9.63640511,4.05993366 12.4568353,1.41038383 12.4568353,1.55882749 C12.4568353,1.70727114 15.4587822,4.08443422 18.1184918,4.68061458 C19.7435171,5.04462294 21.4104377,5.11229116 22.4184613,5.11229116 C23.0049939,5.11229116 23.5899257,5.08895729 23.3706246,5.08895729 L23.3706246,9.59838717 C23.3706246,24.5250634 12.5400634,26.4938805 12.4568353,26.4938805 Z M22.9458663,3.4650796 C22.9179362,3.46741299 22.6094353,3.4837467 22.1270059,3.4837467 C21.3271887,3.4837467 19.7656409,3.43474558 18.2840748,3.10223793 C16.3734004,2.67406143 14.1669206,0.687182437 13.5245277,0.295173457 C13.2082507,0.102790604 12.8373882,0.000140172345 12.4581048,0 C12.0861263,0 11.6938351,0.0746683773 11.3916819,0.294006763 C10.8470445,0.687182465 9.00492587,2.59705966 6.74512492,3.10223793 C5.26482836,3.43474558 3.6728113,3.48491339 2.87299411,3.48491339 C2.3905647,3.48491339 2.08079422,3.46741299 2.05159455,3.4650796 C1.52120091,3.43297794 0.999751833,3.60255465 0.609384514,3.93409038 C0.221736195,4.26447641 0.000994169435,4.7280909 0,5.21395311 L0,9.59838717 C0,25.8037594 11.6240097,27.8921408 12.1178651,27.9738093 C12.3426739,28.0087302 12.5722662,28.0087302 12.797075,27.9738093 C13.2921999,27.8921408 25,25.8037594 25,9.59838717 L25,5.21395311 C24.9993583,4.7276849 24.7785868,4.26358595 24.3906155,3.93292368 C23.9986976,3.60114524 23.4765694,3.43191903 22.9458663,3.4650796 Z" id="Shape"></path>
        </g>
    </g>
</svg>