<?xml version="1.0" encoding="UTF-8"?>
<svg width="46px" height="46px" viewBox="0 0 46 46" version="1.1" xmlns="http://www.w3.org/2000/svg" xmlns:xlink="http://www.w3.org/1999/xlink">
    <!-- Generator: Sketch 49.3 (51167) - http://www.bohemiancoding.com/sketch -->
    <title>1 icon/shop/detail/detail_ic_shoppingbag</title>
    <desc>Created with Sketch.</desc>
    <defs></defs>
    <g id="1-icon/shop/detail/detail_ic_shoppingbag" stroke="none" stroke-width="1" fill="none" fill-rule="evenodd">
        <g id="购物车" transform="translate(1.000000, 3.000000)" fill="#444444" fill-rule="nonzero">
            <path d="M40.5220432,18.8007129 C39.9025515,20.5527489 38.763514,22.2159878 37.0756361,22.2159878 L11.4946799,22.2159878 L12.0891851,26.4850815 C12.2235949,27.4276974 12.8603187,28 13.8123886,28 L39,28 C39.6666667,28.1009825 40,28.4343159 40,29 C40,29.5656841 39.6666667,29.8990175 39,30 L12.6865012,30 C11.2588271,30 10.3446676,28.7810001 10.1016959,27.3389002 L6.70803715,2 L1,2 C0.333333333,1.85609313 4.71844785e-16,1.52275979 4.71844785e-16,1 C5.18931754e-16,0.477240207 0.333333333,0.149473772 1,0.0167006934 C1,0.0167006934 5.33250412,-6.38378239e-16 6.91957455,0.0167006934 C8.0505299,0.0286017019 8.64277806,1.72433816 8.64277806,1.72433816 L9.11838222,5 L40.5220432,5 C42.9095416,5 43.7435777,6.1049086 43.7435777,8.46159139 C43.7435777,8.72966229 43.738503,9.05480195 43.6497908,9.42958396 C43.308187,10.8727563 42.2656045,13.996466 40.5220432,18.8007129 Z M40.5220432,7 L9.35618432,7 L11.2568778,20 L12.0891851,20 L36.2140343,20 C37.6908198,20 38.2794349,19.6465613 38.7671015,18.3709562 L41.9908355,9.15886605 C42.3087666,7.36840814 41.7498257,7 40.5220432,7 Z M16.5267605,32.0000038 C19.0123969,32.0000038 21.0267605,34.1021055 21.0267605,36.6960068 C21.0267605,39.2899081 19.0123969,41.3920099 16.5267605,41.3920099 C14.0411241,41.3920099 12.0267605,39.2899082 12.0267605,36.6960069 C12.0267605,34.1021056 14.0411241,32.0000038 16.5267605,32.0000038 Z M16.5267605,39.0000038 C17.9074748,39.0000038 19.0267605,37.8814324 19.0267605,36.5000038 C19.0267605,35.1185753 17.9074748,34.0000038 16.5267605,34.0000038 C15.1460462,34.0000038 14.0267605,35.1185752 14.0267605,36.5000038 C14.0267605,37.8814324 15.1460462,39.0000038 16.5267605,39.0000038 Z M34.5267605,32.0000038 C37.0123969,32.0000038 39.0267605,34.0143674 39.0267605,36.5000038 C39.0267605,38.9856401 37.0123969,41.0000038 34.5267605,41.0000038 C32.0411241,41.0000038 30.0267605,38.9856402 30.0267605,36.5000038 C30.0267605,34.0143675 32.0411241,32.0000038 34.5267605,32.0000038 Z M34.5267605,39.0000038 C35.9081891,39.0000038 37.0267605,37.8814324 37.0267605,36.5000038 C37.0267605,35.1185753 35.9081891,34.0000038 34.5267605,34.0000038 C33.1453319,34.0000038 32.0267605,35.1185752 32.0267605,36.5000038 C32.0267605,37.8814324 33.1453319,39.0000038 34.5267605,39.0000038 Z" id="Shape"></path>
        </g>
    </g>
</svg>