<?xml version="1.0" encoding="UTF-8"?>
<svg width="32px" height="26px" viewBox="0 0 32 26" version="1.1" xmlns="http://www.w3.org/2000/svg" xmlns:xlink="http://www.w3.org/1999/xlink">
    <!-- Generator: Sketch 50.2 (55047) - http://www.bohemiancoding.com/sketch -->
    <title>Graphics / Custom Icons / Customer / me_ic_integral_grey_32</title>
    <desc>Created with Sketch.</desc>
    <defs></defs>
    <g id="Graphics-/-Custom-Icons-/-Customer-/-me_ic_integral_grey_32" stroke="none" stroke-width="1" fill="none" fill-rule="evenodd">
        <path d="M31.0333374,8.28654564 L22.7658732,1.00601594 C22.6407274,0.897574637 22.4812472,0.727272727 22.3162315,0.727272727 L13.1839235,0.727272727 C13.0908,0.727272727 12.9969407,0.727272727 12.9071105,0.727272727 L8.75957444,0.727272727 C8.58061469,0.727272727 8.40852183,0.898774429 8.28001275,1.02450706 L0.936706756,8.2403531 C0.669248089,8.50127565 0.656285078,8.9382874 0.90745236,9.21547791 L15.6113367,25.3063961 C15.7158967,25.4217445 15.8491062,25.4488794 16,25.4544838 C16,25.4544838 15.9752899,25.4544838 16.1189966,25.4544838 C16.3136171,25.4544838 16.5028772,25.4618415 16.6328928,25.3158181 L31.0964007,9.21946552 C31.2200399,9.080535 31.2831033,8.9258306 31.2713314,8.73979007 C31.2593845,8.55339663 31.1736183,8.4081848 31.0333374,8.28654564 Z M9.70363271,9.40818795 L14.278563,21.7627685 L3.08394355,9.40818795 L9.70363271,9.40818795 Z M18.1999119,2.10348568 L21.2983191,7.99665131 L10.9481178,7.99665131 L13.4939499,2.10348571 L18.1999119,2.10348568 Z M21.1434986,9.40818795 L16.1237264,22.8442174 L11.1599755,9.40818795 L21.1434986,9.40818795 Z M22.6145912,9.40818795 L28.9350448,9.40818795 L18.0176588,21.6569739 L22.6145912,9.40818795 Z M28.8621366,7.99665131 L22.8571398,7.99665131 L19.7590129,2.10348571 L22.0605797,2.10348571 L28.8621366,7.99665131 Z M9.03862974,2.10348568 L11.987717,2.10348568 L9.43806596,7.99665128 L2.99716136,7.99665131 L9.03862974,2.10348568 Z" id="me_ic_integral-red" fill="#999999" fill-rule="nonzero"></path>
    </g>
</svg>