<?xml version="1.0" encoding="UTF-8"?>
<svg width="34px" height="28px" viewBox="0 0 34 28" version="1.1" xmlns="http://www.w3.org/2000/svg" xmlns:xlink="http://www.w3.org/1999/xlink">
    <!-- Generator: Sketch 50.2 (55047) - http://www.bohemiancoding.com/sketch -->
    <title>h5/Graphics / Custom Icons / Customer / Personal Center / me_ic_integral_gold</title>
    <desc>Created with Sketch.</desc>
    <defs></defs>
    <g id="Graphics-/-Custom-Icons-/-Customer-/-Personal-Center-/-me_ic_integral_gold" stroke="none" stroke-width="1" fill="none" fill-rule="evenodd">
        <path d="M32.7492106,8.94835314 L24.9602426,1.16827782 C24.8291376,1.05425497 24.7524111,1 24.5795374,1 L14.0498246,1 C13.9522666,1 13.8539379,1 13.75983,1 L9.41479227,1 C9.22731062,1 9.04702287,1.18032899 8.91239431,1.31253316 L1.21940708,8.89978304 C0.939212284,9.17413543 0.925631987,9.63364043 1.18875962,9.9250981 L16.592829,26.8442253 C16.702368,26.9655108 16.8419208,26.9940423 17,26.9999352 C17,26.9999352 16.9741132,26.9999352 17.1246631,26.9999352 C17.3285513,26.9999352 17.5268237,27.0076716 17.6630306,26.8541322 L32.815277,9.92929095 C32.9448037,9.7832096 33.0108701,9.62054247 32.9985377,9.42492633 C32.9860218,9.22893911 32.8961716,9.07625313 32.7492106,8.94835314 Z M10,10.127727 L15,22 L4,10.127727 L10,10.127727 Z M19,3 L22.0050507,8 L12,8 L15,3 L19,3 Z M22,10 L17.1296181,24.2553168 L12,10 L22,10 Z M24,10 L30,10 L20,21 L24,10 Z M28.9826792,8 L24.0274757,8 L21.0060425,3 L24.0055237,3 L28.9826792,8 Z M10,3 L13,3 L10,8 L5.02379668,8 L10,3 Z" id="me_ic_integral" fill="#E5C876" fill-rule="nonzero"></path>
    </g>
</svg>