<?xml version="1.0" encoding="UTF-8"?>
<svg width="160px" height="160px" viewBox="0 0 160 160" version="1.1" xmlns="http://www.w3.org/2000/svg" xmlns:xlink="http://www.w3.org/1999/xlink">
    <!-- Generator: Sketch 50.2 (55047) - http://www.bohemiancoding.com/sketch -->
    <title>h5/Graphics / Custom Label / product_lb_error</title>
    <desc>Created with Sketch.</desc>
    <defs>
        <circle id="path-1" cx="78.6885246" cy="78.6885246" r="78.6885246"></circle>
    </defs>
    <g id="Graphics-/-Custom-Label-/-product_lb_error" stroke="none" stroke-width="1" fill="none" fill-rule="evenodd">
        <g id="me_ic_error" transform="translate(1.311475, 1.311475)">
            <mask id="mask-2" fill="white">
                <use xlink:href="#path-1"></use>
            </mask>
            <use id="Mask" fill="#D4D4D4" xlink:href="#path-1"></use>
        </g>
        <g id="tab_ic_home" transform="translate(38.032787, 36.721311)" fill="#FFFFFF" fill-rule="nonzero">
            <path d="M25.5737705,47.3692428 C22.676539,47.3692428 20.3278689,45.0205726 20.3278689,42.1233411 C20.3278689,39.2261097 22.676539,36.8774395 25.5737705,36.8774395 C28.471002,36.8774395 30.8196721,39.2261097 30.8196721,42.1233411 C30.8196721,45.0205726 28.471002,47.3692428 25.5737705,47.3692428 Z M58.3606557,47.3692428 C55.4634243,47.3692428 53.1147541,45.0205726 53.1147541,42.1233411 C53.1147541,39.2261097 55.4634243,36.8774395 58.3606557,36.8774395 C61.2578872,36.8774395 63.6065574,39.2261097 63.6065574,42.1233411 C63.6065574,45.0205726 61.2578872,47.3692428 58.3606557,47.3692428 Z" id="Combined-Shape"></path>
            <path d="M77.6023354,86.409237 L6.51701998,86.409237 C4.73431615,86.409237 2.95161231,85.5271672 1.61458444,84.2040625 C0.277556559,82.8809578 -0.1681194,81.1168182 0.0547185797,79.1321612 L5.40283009,30.8388401 C5.84850604,27.5310783 8.5225618,25.1053864 11.8651315,25.1053864 L72.0313859,25.1053864 C75.3739556,25.1053864 78.0480114,27.5310783 78.4936873,30.8388401 L83.8417988,79.1321612 C84.0646368,80.8963008 83.3961229,82.6604404 82.281933,84.2040625 C81.1677431,85.5271672 79.3850393,86.409237 77.6023354,86.409237 Z M14.5391048,31.6627635 C13.5284605,31.6627635 12.9220739,32.2603978 12.7199451,33.2564551 L7.86885246,76.8837637 C7.86885246,77.481398 8.07098132,77.8798209 8.27311018,78.2782439 C8.67736789,78.6766668 9.08162561,78.8758782 9.68801218,78.8758782 L74.1671179,78.8758782 C74.7735045,78.8758782 75.1777622,78.6766668 75.5820199,78.2782439 C75.9862776,77.8798209 76.1884065,77.481398 75.9862776,76.8837637 L71.135185,33.2564551 C70.9330562,32.2603978 70.3266696,31.6627635 69.3160253,31.6627635 L14.5391048,31.6627635 Z" id="Shape"></path>
            <path d="M55.0819672,39.6025557 L55.0819672,18.4898025 C55.0819672,10.715681 50.2257737,6.55737705 41.9672131,6.55737705 C33.9259831,6.55737705 28.852459,10.5055696 28.852459,18.4898025 L28.852459,39.6025557 C28.852459,40.8632241 25.8800814,39.0807188 24.5760982,39.0807188 C23.272115,39.0807188 22.295082,40.8632241 22.295082,39.6025557 L22.295082,18.4898025 C22.295082,8.19434427 31.3180166,0 41.9672131,0 C52.6164096,0 61.6393443,8.19434427 61.6393443,18.4898025 L61.6393443,39.6025557 C61.6393443,40.6531127 59.6825148,39.0807188 58.5958621,39.0807188 C57.2918789,39.0807188 55.0819672,40.8632241 55.0819672,39.6025557 Z" id="Shape"></path>
        </g>
    </g>
</svg>