<svg xmlns="http://www.w3.org/2000/svg" width="20" height="20" viewBox="0 0 20 20">
  <path fill="#444" fill-rule="evenodd" d="M137.166667,23.1666667 L137.166667,14.8333333 C137.166667,14.373096 137.539763,14 138,14 C138.460237,14 138.833333,14.373096 138.833333,14.8333333 L138.833333,23.1666667 L147.166667,23.1666667 C147.626904,23.1666667 148,23.5397627 148,24 C148,24.4602373 147.626904,24.8333333 147.166667,24.8333333 L138.833333,24.8333333 L138.833333,33.1666667 C138.833333,33.626904 138.460237,34 138,34 C137.539763,34 137.166667,33.626904 137.166667,33.1666667 L137.166667,24.8333333 L128.833333,24.8333333 C128.373096,24.8333333 128,24.4602373 128,24 C128,23.5397627 128.373096,23.1666667 128.833333,23.1666667 L137.166667,23.1666667 Z" transform="translate(-128 -14)"/>
</svg>
